<svg viewBox="0 0 156 41" xmlns="http://www.w3.org/2000/svg"><g id="V1" stroke="none" stroke-width="1" fill="none" fill-rule="evenodd"><g id="Animasjonsguide" transform="translate(-355 -4657)" fill="#000"><g id="logo_white_footer" transform="translate(355 4657)"><path d="M17.331 32.596c-1.256 1.301-3.037 2.03-4.87 2.03-1.884 0-3.665-.729-4.869-2.03-1.256-1.353-1.99-3.226-1.99-5.358l.001-.053c.012-2.163.742-4.016 1.99-5.307 1.203-1.405 2.984-2.133 4.868-2.133 1.833 0 3.614.728 4.87 2.133 1.156 1.196 1.912 2.876 2.027 4.839v1.03c-.115 1.921-.871 3.605-2.027 4.85zm4.248-18.419a2.22 2.22 0 0 0-2.221 2.208c-1.976-1.343-4.308-2.208-6.897-2.208-3.56 0-6.649 1.51-8.9 3.903C1.32 20.41.012 23.615 0 27.185 0 30.775 1.308 34 3.56 36.394c2.251 2.342 5.34 3.799 8.9 3.799 2.59 0 4.922-.815 6.897-2.19a2.22 2.22 0 0 0 2.22 2.19h1.124c1.221 0 2.221-.994 2.221-2.207V16.385c0-1.214-1-2.208-2.22-2.208h-1.124z" id="Fill-1"/><path d="M63.299 14.177H33.726a2.221 2.221 0 0 0-2.222 2.208v21.6c0 1.214 1 2.208 2.222 2.208h1.123a2.222 2.222 0 0 0 2.221-2.207V19.708h8.66v18.278c0 1.213 1 2.207 2.221 2.207h1.123a2.221 2.221 0 0 0 2.221-2.207V19.708h8.66v18.278c0 1.213 1 2.207 2.22 2.207H63.3a2.221 2.221 0 0 0 2.221-2.207V16.385c0-1.214-.999-2.208-2.221-2.208" id="Fill-2"/><path d="M150.345 27.748c-.115 1.921-.871 3.604-2.027 4.848-1.256 1.301-3.037 2.03-4.87 2.03-1.884 0-3.664-.729-4.869-2.03-1.257-1.353-1.989-3.226-1.989-5.358v-.053c.012-2.163.743-4.016 1.989-5.307 1.205-1.405 2.985-2.133 4.87-2.133 1.832 0 3.613.728 4.87 2.133 1.155 1.196 1.911 2.876 2.026 4.837v1.033zm3.344-13.57h-1.123a2.22 2.22 0 0 0-2.221 2.207v.035c-1.976-1.378-4.308-2.243-6.896-2.243-3.56 0-6.65 1.51-8.901 3.903-2.241 2.33-3.547 5.535-3.56 9.105v.053c0 3.537 1.308 6.763 3.56 9.156 2.252 2.342 5.34 3.799 8.9 3.799 2.59 0 4.921-.815 6.897-2.19a2.221 2.221 0 0 0 2.221 2.19h1.123a2.221 2.221 0 0 0 2.221-2.207V16.385c0-1.214-1-2.208-2.22-2.208z" id="Fill-3"/><path d="M105.665 14.177h-1.123a2.221 2.221 0 0 0-2.222 2.208v21.6c0 1.214 1 2.208 2.222 2.208h1.123a2.222 2.222 0 0 0 2.221-2.207V16.385c0-1.214-1-2.208-2.22-2.208" id="Fill-4"/><path d="M89.607 32.388c-1.309 1.353-3.037 2.134-4.922 2.134-1.937 0-3.613-.781-4.922-2.134-1.309-1.3-2.094-3.174-2.094-5.15v-.053c.014-2.06.796-3.913 2.094-5.203 1.31-1.353 2.985-2.134 4.922-2.134 1.885 0 3.613.781 4.922 2.134 1.298 1.29 2.08 3.143 2.094 5.203v.053c0 1.976-.785 3.85-2.094 5.15zm-4.922-18.21c-2.566 0-5.078.832-7.016 2.185l-.002-10.384c0-1.214-.999-2.207-2.22-2.207h-1.124a2.22 2.22 0 0 0-2.221 2.207v32.007c0 1.213.999 2.207 2.22 2.207h1.124a2.22 2.22 0 0 0 2.22-2.169c1.974 1.314 4.446 2.169 7.019 2.169 7.069 0 12.724-5.932 12.724-12.955-.029-7.158-5.673-13.06-12.724-13.06z" id="Fill-5"/><path d="M127.088 14.177h-3.423V5.98c0-1.214-1-2.207-2.222-2.207h-1.123a2.221 2.221 0 0 0-2.221 2.207v8.198h-3.424a2.22 2.22 0 0 0-2.22 2.208v1.116c0 1.214.999 2.207 2.22 2.207h3.424v18.278c0 1.213 1 2.207 2.22 2.207h1.124a2.221 2.221 0 0 0 2.222-2.207V19.708h3.423a2.22 2.22 0 0 0 2.221-2.207v-1.116c0-1.214-1-2.208-2.221-2.208" id="Fill-6"/><path d="M108.22 3.169a3.108 3.108 0 0 1-3.116 3.097 3.107 3.107 0 0 1-3.118-3.097A3.107 3.107 0 0 1 105.104.07a3.107 3.107 0 0 1 3.117 3.098" id="Fill-7"/></g></g></g><script/></svg>