<svg id="Layer_1" data-name="Layer 1" xmlns="http://www.w3.org/2000/svg" width="100%" height="100%" preserveAspectRatio="xMidYMid meet" viewBox="0 0 425.2 111.02"><defs><style>.cls-1{fill:#000}</style></defs><path class="cls-1" d="M199.43.31h-78.69v13.63h32.41v96.68h13.76V13.94h32.52V.31zM79.31.34c-30.18 0-45.27 35.38-46.44 38.24-.05.14-26.21 57.34-32.87 71.9h15.07l21.91-48.1h54.28v48.1h13.69V.34zm12 47.88h-47.8l2-4.32s12.36-29.84 33.84-29.84h12zM320.24.36V110.5h13.69V62.4h54.29l21.91 48.1h15.07c-6.66-14.55-32.83-71.77-32.87-71.9C391.17 35.73 376.07.36 345.88.36zm13 13h11.94c21.48 0 33.83 29.84 33.83 29.84l2 4.33h-47.75zm-42.65 34.46h-54.94a7.45 7.45 0 1 0 0 14.9h54.9a7.45 7.45 0 1 0 0-14.9z"/><path class="cls-1" d="M199.57 55.5A55.48 55.48 0 0 1 255.01-.01c15.18 0 30.25 7.06 40.85 18.58h-.06a7.035 7.035 0 0 1-10.36 9.52c-8-8.67-19.38-13.94-30.39-13.95a41.36 41.36 0 0 0-41.4 41.37 41.36 41.36 0 0 0 41.34 41.4c11 0 22.36-5.28 30.39-13.95a7.032 7.032 0 0 1 10.36 9.51h.05c-10.6 11.52-25.66 18.59-40.85 18.59a55.48 55.48 0 0 1-55.44-55.51z"/><script/></svg>