<svg viewBox="0 0 640 480" preserveAspectRatio="xMidYMid meet" height="100%" width="100%" xmlns="http://www.w3.org/2000/svg"><script xmlns=""/><defs><clipPath id="clipPath16"><path d="M-324.89 624.12h960v-560h-960v560z" id="path18"/></clipPath></defs><g><title>background</title><path fill="none" id="canvas_background" d="M-1-1h642v482H-1z"/></g><g><title>Layer 1</title><g id="g10"><g id="g12"><g id="g14" clip-path="url(#clipPath16)" transform="matrix(2.4211 0 0 -2.4211 -56.447 1072.014)"><g id="g20"><path fill="#000000" d="M197.814 351.867c-1.3-3.33-2.87-7.495-4.473-11.523-2.596-6.533-5.135-13.234-5.76-14.807-.684 1.514-3.62 8.323-6.54 14.807-1.867 4.135-3.646 8.37-5.072 11.523h-8.193l5.077-11.523 8.898-20.21c.664-1.397 2.236-3.78 5.693-3.897 1.6-.06 4.512.273 5.937 3.672l8.008 20.434 4.453 11.523h-8.026z" id="path22"/></g><g id="g24"><path fill="#000000" d="M157.336 340.344v-6.855c0-5.31-4.277-9.636-9.54-9.636-5.274 0-9.562 4.326-9.562 9.635v18.357h-7.475V333.49c0-9.44 7.64-17.107 17.035-17.107 9.375 0 17.012 7.666 17.012 17.106v18.357h-7.47v-11.503z" id="path26"/></g><g id="g28"><path fill="#000000" d="M70.007 323.844c-5.742 0-10.425 4.713-10.425 10.508 0 2.226.698 4.293 1.88 5.992 1.885 2.72 5.015 4.5 8.545 4.5 3.54 0 6.675-1.78 8.56-4.5 1.18-1.7 1.88-3.766 1.88-5.992 0-5.795-4.683-10.508-10.44-10.508m0 28.482c-3.892 0-7.485-1.255-10.425-3.384v22.178h-7.47v-36.768c0-9.922 8.032-17.98 17.895-17.98 9.878 0 17.9 8.058 17.9 17.98 0 2.1-.366 4.117-1.03 5.992-2.46 6.972-9.092 11.982-16.87 11.982" id="path30"/></g><g id="g32"><path fill="#000000" d="M109.123 323.942c-5.737 0-10.41 4.717-10.41 10.514 0 2.18.664 4.21 1.797 5.888 1.875 2.778 5.04 4.61 8.613 4.61 3.59 0 6.753-1.832 8.633-4.61 1.138-1.68 1.802-3.707 1.802-5.888 0-5.797-4.678-10.514-10.435-10.514m0 28.487c-7.803 0-14.458-5.065-16.895-12.086-.644-1.845-.996-3.828-.996-5.888 0-9.918 8.033-17.975 17.89-17.975 9.88 0 17.91 8.058 17.91 17.976 0 2.06-.355 4.043-.995 5.888-2.436 7.02-9.092 12.085-16.914 12.085" id="path34"/></g><g id="g36"><path fill="#000000" d="M223.44 323.854c-5.733 0-10.41 4.713-10.41 10.508 0 2.222.692 4.287 1.864 5.982 1.885 2.725 5.02 4.516 8.545 4.516 2.548 0 4.853-.937 6.66-2.465l-.03-.016-3.526-2.036-4.863-2.808-.01.01c-1.786-1.036-2.39-3.315-1.366-5.108 1.035-1.78 3.32-2.397 5.108-1.367l12.256 7.038-.02.01c.88.507 1.475 1.318 1.73 2.226.262.938.165 1.967-.363 2.87-.615 1.085-1.357 2.07-2.168 3l-.05.048c-3.28 3.71-8.036 6.07-13.358 6.07-7.765 0-14.396-5.016-16.866-11.988-.655-1.87-1.026-3.886-1.026-5.982 0-9.922 8.037-17.98 17.89-17.98 7.433 0 13.82 4.572 16.524 11.046l-6.875 2.965c-1.552-3.834-5.283-6.54-9.648-6.54" id="path38"/></g><g id="g40"><path fill="#000000" d="M251.77 371.013h-7.462v-40.958c.02-7.5 6.074-13.613 13.525-13.71h1.028v7.47h-.85c-3.428 0-6.23 2.813-6.24 6.26v14.297h7.09v7.476h-7.09v19.165z" id="path42"/></g></g></g></g></g></svg>
