<svg width="100%" height="100%" preserveAspectRatio="xMidYMid meet" viewBox="0 0 356 82" version="1.1" xmlns="http://www.w3.org/2000/svg" xmlns:xlink="http://www.w3.org/1999/xlink">
    <!-- Generator: Sketch 49 (51002) - http://www.bohemiancoding.com/sketch -->
    <desc>Created with Sketch.</desc>
    <defs>
        <polygon id="path-3" points="0.781765152 0.7258 20.449 0.7258 20.449 27.2288 0.781765152 27.2288"></polygon>
    </defs>
    <g id="Page-1" stroke="none" stroke-width="1" fill="none" fill-rule="evenodd">
        <g transform="translate(0.000000, -1.000000)">
            <g id="Group-3" transform="translate(0.000000, 0.875900)">
                <g id="Clip-2"></g>
                <path d="M75.8101,45.3015 C75.0921,51.2475 72.8841,56.7335 69.5701,61.3765 C63.2231,70.2685 52.8191,76.0665 41.0611,76.0665 C21.5621,76.0665 5.7881,60.1235 6.0601,40.5635 C6.3281,21.3355 22.3061,5.8065 41.5341,6.0605 C52.9871,6.2125 63.1101,11.8655 69.3871,20.4965 C72.7041,25.0565 74.9451,30.4475 75.7411,36.2995 C75.8471,37.0735 75.2411,37.7625 74.4601,37.7625 L59.4521,37.7625 C58.8601,37.7625 58.3471,37.3585 58.2041,36.7835 C56.2241,28.8525 48.8901,23.0415 40.2621,23.4225 C31.1471,23.8235 23.7481,31.2695 23.4011,40.3855 C23.0171,50.4615 31.0711,58.7505 41.0611,58.7505 C49.5171,58.7505 56.5841,52.8115 58.3221,44.8765 C58.4531,44.2825 58.9731,43.8565 59.5811,43.8565 L74.5271,43.8565 C75.3001,43.8565 75.9021,44.5335 75.8101,45.3015 M76.3321,20.4815 C69.2371,8.3075 56.0441,0.1245 40.9381,0.1245 C18.3291,0.1245 0.0001,18.4525 0.0001,41.0625 C0.0001,63.6715 18.3291,82.0005 40.9381,82.0005 C56.1611,82.0005 69.4421,73.6905 76.4961,61.3615 C79.4861,56.1345 81.3541,50.1855 81.7801,43.8415 C81.8421,42.9225 81.8761,41.9965 81.8761,41.0625 C81.8761,39.9465 81.8301,38.8415 81.7421,37.7475 C81.2401,31.4885 79.3311,25.6295 76.3321,20.4815" id="Fill-1" fill="#000000" mask="url(#mask-2)"></path>
            </g>
            <path d="M151.9409,51.692 C147.6829,51.692 144.4719,48.322 144.4719,43.853 C144.4719,39.384 147.6829,36.014 151.9409,36.014 C156.1999,36.014 159.4109,39.384 159.4109,43.853 C159.4109,48.322 156.1999,51.692 151.9409,51.692 M151.9409,30.601 C144.4459,30.601 138.7949,36.298 138.7949,43.853 C138.7949,51.408 144.4459,57.105 151.9409,57.105 C159.4359,57.105 165.0879,51.408 165.0879,43.853 C165.0879,36.298 159.4359,30.601 151.9409,30.601" id="Fill-4" fill="#000000"></path>
            <path d="M131.5728,48.1588 C131.4308,48.0568 131.2358,48.0888 131.1278,48.2258 C129.3098,50.5258 127.0528,51.6918 124.4158,51.6918 C119.7698,51.6918 116.5238,48.4688 116.5238,43.8528 C116.5238,39.3838 119.7808,36.0138 124.0988,36.0138 C127.3378,36.0138 129.4268,37.9888 130.4788,39.3458 C130.5938,39.4938 130.8028,39.5198 130.9478,39.4008 L134.6728,36.3168 C134.8078,36.2048 134.8338,36.0038 134.7278,35.8638 C132.2238,32.5628 128.2748,30.6008 124.0988,30.6008 C116.5438,30.6008 110.8468,36.2978 110.8468,43.8528 C110.8468,51.4078 116.6798,57.1048 124.4158,57.1048 C128.9238,57.1048 133.3568,54.8258 135.5578,51.4058 C135.6528,51.2598 135.6118,51.0628 135.4698,50.9618 L131.5728,48.1588 Z" id="Fill-6" fill="#000000"></path>
            <g id="Group-10" transform="translate(335.000000, 29.875900)">
                <mask id="mask-4" fill="white">
                    <use xlink:href="#path-3"></use>
                </mask>
                <g id="Clip-9"></g>
                <path d="M11.1812,11.1228 C8.6582,10.4778 7.0032,9.9508 7.0032,8.5458 C7.0032,6.6378 9.1542,5.7688 11.1522,5.7688 C12.8112,5.7688 14.4452,6.3368 16.0132,7.4578 C16.1592,7.5618 16.3612,7.5348 16.4662,7.3908 L19.0822,3.7998 C19.1872,3.6558 19.1602,3.4508 19.0192,3.3428 C16.7612,1.6058 14.0102,0.7258 10.8352,0.7258 C6.2552,0.7258 1.3272,3.2548 1.3272,8.8098 C1.3272,11.8988 3.3752,14.2148 7.2492,15.5068 C8.1312,15.8008 9.0322,16.0308 9.9022,16.2538 C12.9222,17.0268 14.7732,17.5928 14.7732,19.4078 C14.7732,21.1458 12.7432,22.1858 10.7832,22.1858 C8.4772,22.1858 6.1132,21.3318 3.9232,19.7148 C3.7772,19.6058 3.5712,19.6358 3.4642,19.7838 L0.8422,23.4708 C0.7412,23.6138 0.7692,23.8158 0.9082,23.9238 C3.7342,26.1178 7.0902,27.2288 10.8882,27.2288 C15.5232,27.2288 20.4502,24.4508 20.4502,19.3028 C20.4502,13.5028 13.9552,11.8348 11.1812,11.1228" id="Fill-8" fill="#000000" mask="url(#mask-4)"></path>
            </g>
            <path d="M201.9297,30.6012 C197.4847,30.6012 194.7757,32.4152 192.7467,34.3322 C192.6157,34.4552 192.4137,34.4462 192.2917,34.3142 C190.0637,31.9142 187.0517,30.6012 183.7387,30.6012 C180.9127,30.6012 178.4287,31.8062 177.0237,32.8822 C176.9287,32.9552 176.7957,32.8892 176.7957,32.7692 L176.7957,31.4542 C176.7957,31.2742 176.6497,31.1272 176.4687,31.1272 L171.6037,31.1272 C171.4237,31.1272 171.2767,31.2742 171.2767,31.4542 L171.2767,56.2512 C171.2767,56.4322 171.4237,56.5782 171.6037,56.5782 L176.6267,56.5782 C176.8067,56.5782 176.9527,56.4322 176.9527,56.2512 L176.9527,39.4602 C176.9527,39.3802 176.9787,39.3062 177.0317,39.2462 C178.0077,38.1442 180.3187,36.0142 183.5797,36.0142 C185.3497,36.0142 187.0477,36.7772 188.1237,38.0582 C189.0657,39.1662 189.4687,40.5842 189.4687,42.7982 L189.4687,56.2512 C189.4687,56.4322 189.6147,56.5782 189.7947,56.5782 L194.8187,56.5782 C194.9987,56.5782 195.1447,56.4322 195.1447,56.2512 L195.1447,43.5892 C195.1447,42.0672 195.0277,40.7202 194.7857,39.4842 C194.7657,39.3792 194.7957,39.2742 194.8717,39.1982 C196.4077,37.6652 198.5857,36.0142 201.9297,36.0142 C203.6247,36.0142 205.2227,36.7582 206.3147,38.0582 C207.2567,39.1662 207.6587,40.5842 207.6587,42.7982 L207.6587,56.2512 C207.6587,56.4322 207.8057,56.5782 207.9857,56.5782 L213.0097,56.5782 C213.1897,56.5782 213.3367,56.4322 213.3367,56.2512 L213.3367,43.5892 C213.3367,39.5292 212.6367,36.9282 210.9967,34.8922 C208.8257,32.1642 205.5217,30.6012 201.9297,30.6012" id="Fill-11" fill="#000000"></path>
            <path d="M299.2554,51.7096 C299.2154,51.5386 299.0484,51.4266 298.8764,51.4626 C298.1914,51.6076 297.2034,51.6916 296.5304,51.6916 C295.2164,51.6916 293.9434,51.2116 293.3574,50.4906 C292.8114,49.8536 292.6984,48.8516 292.6984,47.5436 L292.6984,36.6046 C292.6984,36.4236 292.8454,36.2776 293.0254,36.2776 L297.5534,36.2776 C297.7344,36.2776 297.8804,36.1306 297.8804,35.9506 L297.8804,31.4546 C297.8804,31.2736 297.7344,31.1276 297.5534,31.1276 L293.0254,31.1276 C292.8454,31.1276 292.6984,30.9816 292.6984,30.8006 L292.6984,24.6006 C292.6984,24.4196 292.5524,24.2736 292.3724,24.2736 L287.3494,24.2736 C287.1684,24.2736 287.0224,24.4196 287.0224,24.6006 L287.0224,30.8006 C287.0224,30.9816 286.8764,31.1276 286.6954,31.1276 L282.3544,31.1276 C282.1734,31.1276 282.0274,31.2736 282.0274,31.4546 L282.0274,35.9506 C282.0274,36.1306 282.1734,36.2776 282.3544,36.2776 L286.6954,36.2776 C286.8764,36.2776 287.0224,36.4236 287.0224,36.6046 L287.0224,47.2806 C287.0224,50.3096 287.7064,52.5376 289.1094,54.0926 C290.8484,56.0636 293.3604,57.1056 296.3724,57.1056 C297.6804,57.1056 299.0964,56.9296 300.0894,56.6496 C300.2554,56.6036 300.3504,56.4306 300.3114,56.2626 L299.2554,51.7096 Z" id="Fill-13" fill="#000000"></path>
            <path d="M323.9341,48.2653 C323.9341,48.3403 323.9091,48.4143 323.8631,48.4733 C322.2771,50.4933 319.9021,51.6923 317.4651,51.6923 C313.0401,51.6923 309.5741,48.2493 309.5741,43.8533 C309.5741,39.3843 312.8531,36.0143 317.2021,36.0143 C319.7591,36.0143 322.2311,37.2133 323.8601,39.2333 C323.9081,39.2933 323.9341,39.3693 323.9341,39.4453 L323.9341,48.2653 Z M329.2841,31.1273 L324.4181,31.1273 C324.2381,31.1273 324.0911,31.2743 324.0911,31.4543 L324.0911,32.7973 C324.0911,32.8933 323.9841,32.9463 323.9071,32.8893 C321.8401,31.3703 319.4131,30.6013 316.6741,30.6013 C314.3901,30.6013 312.2341,31.1643 310.4411,32.2283 C306.3431,34.6533 303.8971,38.9983 303.8971,43.8533 C303.8971,48.6943 306.3241,53.0193 310.3881,55.4233 C312.1611,56.4763 314.5501,57.1053 316.7801,57.1053 C319.4281,57.1053 321.9181,56.3073 323.8941,54.8403 C323.9771,54.7793 324.0911,54.8353 324.0911,54.9383 L324.0911,56.2513 C324.0911,56.4323 324.2381,56.5783 324.4181,56.5783 L329.2841,56.5783 C329.4641,56.5783 329.6101,56.4323 329.6101,56.2513 L329.6101,31.4543 C329.6101,31.2743 329.4641,31.1273 329.2841,31.1273 Z" id="Fill-15" fill="#000000"></path>
            <path d="M233.2529,51.692 C230.8159,51.692 228.4419,50.493 226.8559,48.474 C226.8099,48.415 226.7849,48.34 226.7849,48.265 L226.7849,39.445 C226.7849,39.369 226.8109,39.293 226.8589,39.234 C228.4879,37.213 230.9599,36.014 233.5169,36.014 C237.8649,36.014 241.1449,39.384 241.1449,43.853 C241.1449,48.249 237.6779,51.692 233.2529,51.692 M240.2779,32.229 C238.4839,31.164 236.3279,30.601 234.0449,30.601 C231.3169,30.601 228.8979,31.364 226.8369,32.871 C226.7489,32.936 226.6269,32.876 226.6269,32.766 L226.6269,31.454 C226.6269,31.274 226.4809,31.128 226.2999,31.128 L221.4349,31.128 C221.2539,31.128 221.1079,31.274 221.1079,31.454 L221.1079,68.906 C221.1079,69.087 221.2539,69.233 221.4349,69.233 L226.4579,69.233 C226.6379,69.233 226.7849,69.087 226.7849,68.906 L226.7849,55.039 C226.7849,54.933 226.9029,54.875 226.9879,54.938 C228.9559,56.376 231.2889,57.105 233.9389,57.105 C236.1669,57.105 238.5569,56.477 240.3309,55.424 C244.3949,53.019 246.8219,48.694 246.8219,43.853 C246.8219,38.999 244.3749,34.653 240.2779,32.229" id="Fill-17" fill="#000000"></path>
            <path d="M276.0249,31.1276 L271.0019,31.1276 C270.8209,31.1276 270.6749,31.2736 270.6749,31.4546 L270.6749,48.2456 C270.6749,48.3256 270.6499,48.3996 270.5959,48.4596 C269.6209,49.5606 267.3099,51.6916 264.0489,51.6916 C262.2779,51.6916 260.5799,50.9286 259.5039,49.6476 C258.5619,48.5396 258.1599,47.1216 258.1599,44.9076 L258.1599,31.4546 C258.1599,31.2736 258.0139,31.1276 257.8329,31.1276 L252.8109,31.1276 C252.6299,31.1276 252.4829,31.2736 252.4829,31.4546 L252.4829,44.1166 C252.4829,48.1756 253.1839,50.7776 254.8239,52.8146 C256.9949,55.5416 260.2999,57.1056 263.8899,57.1056 C266.7969,57.1056 269.2389,55.8776 270.6409,54.8446 C270.7229,54.7856 270.8329,54.8436 270.8329,54.9436 L270.8329,56.2516 C270.8329,56.4316 270.9799,56.5776 271.1599,56.5776 L276.0249,56.5776 C276.2059,56.5776 276.3519,56.4316 276.3519,56.2516 L276.3519,31.4546 C276.3519,31.2736 276.2059,31.1276 276.0249,31.1276" id="Fill-19" fill="#000000"></path>
        </g>
    </g>
</svg>
