<svg viewBox="0 0 356 82" xmlns="http://www.w3.org/2000/svg" xmlns:xlink="http://www.w3.org/1999/xlink"><defs><path id="a" d="M.782.726h19.667v26.503H.782z"/></defs><g fill="none" fill-rule="evenodd"><path d="M75.81 45.301a34.814 34.814 0 0 1-6.24 16.075c-6.347 8.893-16.75 14.69-28.509 14.69-19.499 0-35.273-15.943-35-35.503C6.327 21.335 22.305 5.806 41.533 6.06c11.453.153 21.576 5.806 27.853 14.437A34.804 34.804 0 0 1 75.741 36.3c.106.774-.5 1.463-1.28 1.463H59.451a1.286 1.286 0 0 1-1.248-.98c-1.98-7.93-9.314-13.742-17.942-13.36-9.115.4-16.514 7.847-16.86 16.963-.385 10.075 7.67 18.364 17.66 18.364 8.455 0 15.522-5.938 17.26-13.873a1.292 1.292 0 0 1 1.26-1.02h14.945c.773 0 1.375.676 1.283 1.444m.522-24.82C69.237 8.308 56.044.125 40.938.125 18.33.125 0 18.454 0 41.064 0 63.67 18.33 82 40.938 82c15.223 0 28.504-8.31 35.558-20.64a40.705 40.705 0 0 0 5.284-17.52c.062-.919.096-1.845.096-2.779 0-1.115-.046-2.22-.134-3.314a40.697 40.697 0 0 0-5.41-17.266" fill="#000" mask="url(#mask-2)" transform="translate(0 -.124)"/><path d="M151.94 50.692c-4.257 0-7.468-3.37-7.468-7.839s3.21-7.839 7.469-7.839 7.47 3.37 7.47 7.839-3.211 7.839-7.47 7.839m0-21.091c-7.495 0-13.146 5.697-13.146 13.252 0 7.555 5.65 13.252 13.146 13.252 7.495 0 13.147-5.697 13.147-13.252 0-7.555-5.652-13.252-13.147-13.252M131.573 47.159a.325.325 0 0 0-.445.067c-1.818 2.3-4.075 3.466-6.712 3.466-4.646 0-7.892-3.223-7.892-7.84 0-4.468 3.257-7.838 7.575-7.838 3.239 0 5.328 1.975 6.38 3.332a.327.327 0 0 0 .469.055l3.725-3.084a.332.332 0 0 0 .055-.453 13.367 13.367 0 0 0-10.63-5.263c-7.554 0-13.251 5.697-13.251 13.252 0 7.555 5.833 13.252 13.569 13.252 4.508 0 8.94-2.28 11.142-5.7a.328.328 0 0 0-.088-.443l-3.897-2.803z" fill="#000"/><g transform="translate(335 28.876)"><mask id="b" fill="#fff"><use xlink:href="#a"/></mask><path d="M11.181 11.123c-2.523-.645-4.178-1.172-4.178-2.577 0-1.908 2.151-2.777 4.15-2.777 1.658 0 3.292.568 4.86 1.689a.325.325 0 0 0 .453-.067L19.082 3.8a.332.332 0 0 0-.063-.457C16.761 1.606 14.01.726 10.835.726c-4.58 0-9.508 2.529-9.508 8.084 0 3.089 2.048 5.405 5.922 6.697.882.294 1.783.524 2.653.747 3.02.773 4.871 1.339 4.871 3.154 0 1.738-2.03 2.778-3.99 2.778-2.306 0-4.67-.854-6.86-2.471a.325.325 0 0 0-.459.069L.842 23.47a.333.333 0 0 0 .066.453c2.826 2.194 6.182 3.305 9.98 3.305 4.635 0 9.562-2.778 9.562-7.926 0-5.8-6.495-7.468-9.269-8.18" fill="#000" mask="url(#b)"/></g><path d="M201.93 29.601c-4.445 0-7.154 1.814-9.183 3.731a.319.319 0 0 1-.455-.018c-2.228-2.4-5.24-3.713-8.553-3.713-2.826 0-5.31 1.205-6.715 2.281a.14.14 0 0 1-.228-.113v-1.315a.327.327 0 0 0-.327-.327h-4.865a.328.328 0 0 0-.327.327v24.797c0 .181.147.327.327.327h5.023c.18 0 .326-.146.326-.327v-16.79c0-.08.026-.155.079-.215.976-1.102 3.287-3.232 6.548-3.232 1.77 0 3.468.763 4.544 2.044.942 1.108 1.345 2.526 1.345 4.74v13.453c0 .181.146.327.326.327h5.024c.18 0 .326-.146.326-.327V42.59c0-1.522-.117-2.869-.36-4.105a.315.315 0 0 1 .087-.286c1.536-1.533 3.714-3.184 7.058-3.184 1.695 0 3.293.744 4.385 2.044.942 1.108 1.344 2.526 1.344 4.74v13.453c0 .181.147.327.327.327h5.024c.18 0 .327-.146.327-.327V42.59c0-4.06-.7-6.66-2.34-8.697-2.171-2.728-5.475-4.29-9.067-4.29M299.255 50.71a.324.324 0 0 0-.379-.247c-.685.145-1.673.229-2.346.229-1.314 0-2.587-.48-3.173-1.201-.546-.637-.659-1.64-.659-2.947v-10.94c0-.18.147-.326.327-.326h4.528a.327.327 0 0 0 .327-.327v-4.496a.326.326 0 0 0-.327-.327h-4.528a.327.327 0 0 1-.327-.327v-6.2a.326.326 0 0 0-.326-.327h-5.023a.326.326 0 0 0-.327.327v6.2a.326.326 0 0 1-.327.327h-4.34a.326.326 0 0 0-.328.327v4.496c0 .18.146.327.327.327h4.341c.181 0 .327.146.327.327V46.28c0 3.029.684 5.257 2.087 6.812 1.74 1.97 4.251 3.013 7.263 3.013 1.308 0 2.724-.176 3.717-.456a.323.323 0 0 0 .222-.387l-1.056-4.553zM323.934 47.265a.34.34 0 0 1-.07.208c-1.587 2.02-3.962 3.22-6.399 3.22-4.425 0-7.89-3.444-7.89-7.84 0-4.469 3.278-7.839 7.627-7.839 2.557 0 5.03 1.2 6.658 3.22.048.06.074.135.074.211v8.82zm5.35-17.138h-4.866a.328.328 0 0 0-.327.327v1.343a.114.114 0 0 1-.184.092c-2.067-1.519-4.494-2.288-7.233-2.288-2.284 0-4.44.563-6.233 1.627-4.098 2.425-6.544 6.77-6.544 11.625 0 4.841 2.427 9.166 6.491 11.57 1.773 1.053 4.162 1.682 6.392 1.682 2.648 0 5.138-.798 7.114-2.265a.122.122 0 0 1 .197.098v1.313c0 .181.147.327.327.327h4.866c.18 0 .326-.146.326-.327V30.454a.327.327 0 0 0-.326-.327zM233.253 50.692c-2.437 0-4.811-1.199-6.397-3.218a.343.343 0 0 1-.071-.209v-8.82c0-.076.026-.152.074-.211 1.629-2.021 4.1-3.22 6.658-3.22 4.348 0 7.628 3.37 7.628 7.839 0 4.396-3.467 7.839-7.892 7.839m7.025-19.463c-1.794-1.065-3.95-1.628-6.233-1.628-2.728 0-5.147.763-7.208 2.27a.13.13 0 0 1-.21-.105v-1.312a.326.326 0 0 0-.327-.326h-4.865a.326.326 0 0 0-.327.326v37.452c0 .181.146.327.327.327h5.023c.18 0 .327-.146.327-.327V54.039c0-.106.118-.164.203-.101 1.968 1.438 4.3 2.167 6.95 2.167 2.229 0 4.619-.628 6.393-1.681 4.064-2.405 6.49-6.73 6.49-11.571 0-4.854-2.446-9.2-6.543-11.624M276.025 30.128h-5.023a.326.326 0 0 0-.327.327v16.79c0 .08-.025.155-.08.215-.974 1.1-3.285 3.232-6.546 3.232-1.771 0-3.47-.763-4.545-2.044-.942-1.108-1.344-2.526-1.344-4.74V30.455a.326.326 0 0 0-.327-.327h-5.022a.327.327 0 0 0-.328.327v12.662c0 4.059.7 6.66 2.34 8.698 2.172 2.727 5.477 4.29 9.067 4.29 2.907 0 5.349-1.227 6.75-2.26a.12.12 0 0 1 .193.099v1.308c0 .18.147.326.327.326h4.865a.326.326 0 0 0 .327-.326V30.455a.326.326 0 0 0-.327-.327" fill="#000"/></g></svg>