<svg xmlns="http://www.w3.org/2000/svg" viewBox="0 0 126 34" shape-rendering="geometricPrecision"><defs><filter id="a" width="200%" height="200%" x="-50%" y="-50%" filterUnits="objectBoundingBox"><feOffset dy="1" in="SourceAlpha" result="shadowOffsetOuter1"/><feGaussianBlur stdDeviation=".5" in="shadowOffsetOuter1" result="shadowBlurOuter1"/><feColorMatrix values="0 0 0 0 0 0 0 0 0 0 0 0 0 0 0 0 0 0 0.08 0" in="shadowBlurOuter1" result="shadowMatrixOuter1"/><feMerge><feMergeNode in="shadowMatrixOuter1"/><feMergeNode in="SourceGraphic"/></feMerge></filter></defs><g fill="#000" fill-rule="evenodd" transform="translate(1)" filter="url(#a)"><path d="M5.003.023H.135l8.113 14.062 2.434-4.215zM24.293.023l-9.645 16.721-2.434 4.191 6.378 11.042L37.025.023z"/><g><path d="M50.795 13.341V9.307h-3.876v4.034h-1.443V4.305h1.443V8.09h3.876V4.305h1.442v9.036zM53.454 12.98l.946-.946c-.293-.518-.45-1.194-.45-1.938 0-2.006 1.126-3.38 3.02-3.38.81 0 1.51.293 2.005.766l.901-.879.654.654-.992.969c.293.518.428 1.149.428 1.87 0 2.006-1.149 3.38-2.997 3.38-.811 0-1.487-.248-1.983-.698l-.879.856c-.225-.248-.45-.45-.653-.653zm1.983-1.983l2.614-2.614c-.293-.315-.654-.473-1.15-.473-.99 0-1.622.811-1.622 2.186.023.338.068.631.158.901zm3.042-1.712l-2.614 2.591c.27.293.654.429 1.082.429.991 0 1.645-.79 1.645-2.209 0-.293-.023-.586-.113-.811zm8.811 3.786c0 1.938-1.284 2.93-2.997 2.93-1.465 0-2.546-.632-2.817-1.69l1.352-.384c.136.518.767.901 1.465.901 1.082 0 1.6-.72 1.6-1.757v-.496c-.248.473-1.059.879-1.825.879-1.623 0-2.862-1.375-2.862-3.38 0-1.984 1.172-3.38 2.862-3.38.856 0 1.6.518 1.825.968l.135-.834h1.262v6.243zm-2.997-5.16c-1.014 0-1.69.788-1.69 2.185 0 1.42.676 2.209 1.69 2.209.992 0 1.6-.79 1.6-2.209 0-1.42-.586-2.186-1.6-2.186zm4.395 3.515c.45-.09.901-.18 1.352-.248.09.518.405 1.127 1.442 1.127.225 0 1.375-.09 1.375-.902 0-1.555-3.967.045-3.967-2.727 0-1.104 1.105-1.938 2.48-1.938 1.374 0 2.568.586 2.749 2.029-.451.067-.902.157-1.353.247-.09-.81-.585-1.104-1.352-1.104-.676 0-1.149.36-1.149.766 0 .519.496.676 1.262.744 1.465.158 2.704.473 2.704 1.983 0 1.352-1.194 2.073-2.75 2.073-1.667 0-2.613-.879-2.793-2.05zM79.64 6.85h1.893l-2.817 2.66c.473.608 2.614 3.244 3.087 3.83h-1.645l-2.366-2.93-.631.609v2.321h-1.397V4.305h1.397V9.24L79.64 6.85zm4.304 3.538c0 1.33.45 1.893 1.465 1.916.969 0 1.442-.631 1.442-1.916V6.851h1.375v6.49h-1.24l-.135-.698c-.225.383-.901.81-1.78.81-1.803 0-2.524-.99-2.524-3.086V6.828h1.374v3.561h.023zM91.516 4.305v9.036h-1.375V4.305zM97.735 11.088c.429.112.857.248 1.262.383-.293.946-1.171 2.005-2.952 2.005-1.78 0-3.042-1.374-3.042-3.38s1.172-3.38 2.997-3.38c1.803 0 2.93 1.194 2.93 3.177 0 .203 0 .406-.023.609h-4.44c.023.946.677 1.803 1.623 1.803.631 0 1.307-.316 1.645-1.217zm-.293-1.623c-.045-.969-.495-1.577-1.442-1.577-.924 0-1.442.766-1.487 1.577h2.93zm7.437.36c0-1.329-.45-1.915-1.465-1.915-.969 0-1.442.631-1.442 1.916v3.538h-1.375v-6.49h1.262l.136.698c.225-.405.901-.834 1.712-.834 1.87.023 2.57 1.014 2.57 3.088v3.538h-1.375V9.826h-.023zM45.476 20.959h1.262l.135.811c.226-.36.947-.946 1.893-.946 1.623 0 2.772 1.374 2.772 3.38s-1.036 3.38-2.772 3.38c-.878 0-1.622-.518-1.893-.901v3.313h-1.397v-9.037zm2.997 1.06c-1.014 0-1.6.788-1.6 2.185 0 1.42.586 2.209 1.6 2.209.992 0 1.646-.79 1.646-2.209 0-1.42-.631-2.186-1.646-2.186zm5.792 1.171c-.45-.068-.901-.18-1.375-.248.136-1.442 1.33-2.096 2.682-2.096 1.825 0 2.772.902 2.772 2.66v2.253c0 .383.067.609.338.609.113 0 .27-.023.338-.046v1.127c-.406.113-.654.113-.811.113-.676 0-1.037-.406-1.127-.924a2.71 2.71 0 0 1-2.028.969c-1.51 0-2.389-.834-2.389-2.073 0-1.014.946-1.938 2.637-1.938h1.667v-.383c0-.496-.203-1.172-1.397-1.172-.789-.023-1.284.36-1.307 1.149zm2.704 1.735v-.315h-1.532c-1.15 0-1.375.586-1.375.901 0 .428.293.902 1.15.902 1.126 0 1.757-.767 1.757-1.488zm-1.374-6.896c.676 0 1.239.541 1.239 1.195 0 .676-.54 1.217-1.24 1.217-.675 0-1.239-.519-1.239-1.217 0-.654.564-1.195 1.24-1.195zm0 1.803c.338 0 .608-.27.608-.608a.606.606 0 0 0-.608-.609.62.62 0 0 0-.609.609c-.022.338.27.608.609.608zM66.93 18.412h1.51l-3.268 9.036h-1.375l-3.222-9.036h1.487l2.434 6.94zM73.014 25.195c.428.112.857.248 1.262.36-.293.947-1.172 2.006-2.952 2.006s-3.042-1.375-3.042-3.38c0-2.006 1.172-3.38 2.997-3.38 1.803 0 2.93 1.194 2.93 3.177 0 .203 0 .405-.023.608h-4.44c.023.947.677 1.803 1.623 1.803.654.023 1.307-.293 1.645-1.194zm-.293-1.623c-.045-.969-.495-1.577-1.442-1.577-.924 0-1.442.766-1.487 1.577h2.93zm2.637 1.96c.45-.09.901-.18 1.352-.247.09.518.406 1.127 1.442 1.127.226 0 1.375-.09 1.375-.902 0-1.555-3.966.045-3.966-2.727 0-1.104 1.104-1.938 2.479-1.938 1.374 0 2.569.586 2.749 2.029-.45.067-.901.157-1.352.247-.09-.81-.586-1.104-1.352-1.104-.676 0-1.15.36-1.15.766 0 .519.496.676 1.262.744 1.465.158 2.705.473 2.705 1.983 0 1.352-1.195 2.073-2.75 2.073-1.667 0-2.614-.878-2.794-2.05zm6.4-3.515v-1.059h1.127v-1.87h1.374v1.87h1.352v1.06H84.26v3.672c0 .519.158.677.609.677.203 0 .405-.023.608-.023v1.127l-.811.045h-.158c-1.217 0-1.622-.654-1.622-1.893V22.04h-1.127v-.023zM88.564 18.412v9.036h-1.375v-9.036zM91.628 23.189c-.45-.068-.901-.18-1.374-.248.135-1.442 1.33-2.096 2.681-2.096 1.826 0 2.772.902 2.772 2.66v2.253c0 .383.068.609.338.609.113 0 .27-.023.338-.046v1.127c-.405.113-.653.113-.81.113-.677 0-1.038-.406-1.128-.924a2.71 2.71 0 0 1-2.028.969c-1.51 0-2.389-.834-2.389-2.073 0-1.014.947-1.938 2.637-1.938h1.668v-.383c0-.496-.203-1.172-1.398-1.172-.788-.023-1.284.36-1.307 1.149zm2.705 1.735v-.315H92.8c-1.15 0-1.374.586-1.374.901 0 .428.293.902 1.149.902 1.127 0 1.758-.767 1.758-1.488zm7.617-.991c0-1.33-.451-1.916-1.465-1.916-.97 0-1.443.631-1.443 1.916v3.538h-1.374v-6.513h1.262l.135.699c.225-.406.901-.834 1.713-.834 1.87.022 2.569 1.014 2.569 3.087v3.538h-1.375v-3.515h-.022zm8.9 3.515h-1.261l-.135-.811c-.226.36-.947.946-1.87.946-1.623 0-2.818-1.374-2.818-3.38s1.06-3.38 2.817-3.38c.88 0 1.623.54 1.87.901v-3.312h1.398v9.036zm-2.996-1.036c.991 0 1.6-.79 1.6-2.209 0-1.42-.609-2.186-1.6-2.186-.992 0-1.668.789-1.668 2.186 0 1.42.654 2.209 1.668 2.209zm9.24-1.217c.427.112.856.248 1.261.36-.293.947-1.172 2.006-2.952 2.006s-3.042-1.375-3.042-3.38c0-2.006 1.172-3.38 2.997-3.38 1.803 0 2.93 1.194 2.93 3.177 0 .203 0 .405-.023.608h-4.44c.023.947.677 1.803 1.623 1.803.631.023 1.307-.293 1.645-1.194zm-.316-1.623c-.045-.969-.496-1.577-1.443-1.577-.924 0-1.442.766-1.487 1.577h2.93zm2.388-1.555v-1.059h1.127v-1.87h1.375v1.87h1.352v1.06h-1.352v3.672c0 .519.158.677.608.677.203 0 .406-.023.609-.023v1.127l-.812.045h-.157c-1.217 0-1.623-.654-1.623-1.893V22.04h-1.127v-.023z"/></g></g><script/></svg>