<svg viewBox="0 0 142 46" xmlns="http://www.w3.org/2000/svg" xmlns:xlink="http://www.w3.org/1999/xlink"><script/><defs><path id="path-1" d="M0 46h141.951V.01H0V46z"/></defs><g id="Page-1" stroke="none" stroke-width="1" fill="none" fill-rule="evenodd"><g id="Hjem" transform="translate(-121 -26)"><g id="Toppmeny"><g id="kantega_logo" transform="translate(121 26)"><mask id="mask-2" fill="#fff"><use xlink:href="#path-1"/></mask><path d="M38.965 20.267c-.148-.553-.396-.977-.745-1.272a1.951 1.951 0 0 0-1.413-.577c-.873 0-1.796.277-2.766.83-.925.56-1.793 1.299-2.604 2.219a11.323 11.323 0 0 0-2.072 2.95c-.583 1.123-.923 2.2-1.02 3.228-.148 1.233.049 1.85.591 1.85.463 0 1.117-.304 1.962-.912l2.646-2.219c1.536-1.527 3.343-3.56 5.421-6.097zM38.743.56l.026.027c.228.295.32.704.273 1.227-.05.313-.208.616-.47.91-.035.019-.052.037-.052.055-.628.68-1.619 1.687-2.972 3.022-1.45 1.37-2.564 2.378-3.34 3.021-.263.21-.52.412-.77.604a65.985 65.985 0 0 1-4.403 3.23 72.146 72.146 0 0 1-5.747 3.31 67.778 67.778 0 0 1-5.592 2.507c-.029 0-.052.018-.069.054-.017.012-.026.036-.026.072.463 3.236.9 5.947 1.31 8.136.378 1.894.789 3.337 1.234 4.33.531 1.28 1.085 1.93 1.662 1.948.576-.018 1.301-.235 2.175-.65.445-.21.916-.463 1.413-.757.017-.018.026-.036.026-.054.645-.313 1.173-.051 1.584.784.366.8.257 1.407-.325 1.822-2.096 1.552-3.886 2.264-5.37 2.138h-.052c-.77-.048-1.444-.274-2.02-.677-.612-.396-1.126-.953-1.542-1.668-.018-.03-.04-.045-.069-.045-.662-1.149-1.199-2.784-1.61-4.907l-.84-5.655c-.268-1.84-.542-3.22-.822-4.14a.316.316 0 0 0-.051-.081.173.173 0 0 0-.094-.027c-.034 0-.06.018-.077.054l-5.37 7.684a291.677 291.677 0 0 1-2.33 3.292c-.508.746-.953 1.51-1.336 2.291-.428.728-.996 1.059-1.704.993h-.051c-.526-.054-.888-.22-1.088-.496-.229-.295-.303-.695-.223-1.2l.026-.054.145-.523v-.027h.026a33.487 33.487 0 0 1 1.713-2.914.101.101 0 0 0 .017-.054c.251-.367 1.028-1.515 2.33-3.445l6.389-8.993a47.37 47.37 0 0 0 3.537-5.52v-.081l1.336-2.895c.394-.987.657-1.873.788-2.661.017-.259-.049-.406-.197-.442l-.026-.027c-.16-.03-.43.042-.813.216-.463.223-.883.49-1.26.803a33.766 33.766 0 0 0-3.245 3.049c-.035.018-.052.036-.052.054-.919 1.028-2.13 2.592-3.631 4.69-.777 1.112-1.553 1.443-2.33.992-.4-.258-.63-.562-.693-.91-.052-.35.057-.758.325-1.227 1.102-1.997 2.512-3.882 4.23-5.656 1.486-1.683 3.001-2.988 4.549-3.914C14.748 1.15 16.06.683 17.135.767c.987.054 1.704.499 2.15 1.335.365.691.456 1.578.273 2.66-.245 1.474-.856 3.193-1.833 5.16-.708 1.509-1.672 3.229-2.894 5.159-.018.018-.026.045-.026.081a.1.1 0 0 0 .026.072.299.299 0 0 0 .077.054h.077a48.308 48.308 0 0 0 4.744-2.11 56.943 56.943 0 0 0 5.447-3.157v.027a52.33 52.33 0 0 0 4.925-3.599 36.373 36.373 0 0 0 1.961-1.614c.343-.361 1.05-1.056 2.125-2.084A437.724 437.724 0 0 0 36.19.667c.446-.487.917-.703 1.414-.649h.025c.36 0 .731.18 1.114.541zm94.646 14.756a5.29 5.29 0 0 1 2.356.523c.673.397 1.241.953 1.704 1.67l.993-1.12c.395-.474.806-.712 1.234-.712.348 0 .645.105.89.316.4.348.574.784.523 1.308-.051.33-.174.625-.368.884l-1.14 1.515c-.827 1.004-1.504 2.219-2.03 3.644-.382 1.13-.639 2.27-.77 3.418-.166 1.455-.166 2.288 0 2.499.017.018.06.072.129.162.13.066.336.03.616-.108l2.87-1.723c.462-.313.898-.087 1.31.676.428.77.297 1.38-.394 1.831-1.433.957-2.424 1.59-2.972 1.904-.891.517-1.568.775-2.03.775-1.24 0-1.998-.469-2.278-1.407-.177-.625-.3-1.407-.368-2.345a16.21 16.21 0 0 1 0-2.237l.025-.135c-1.65 1.792-3.169 3.19-4.556 4.194l-2.253 1.308c-.725.313-1.376.469-1.952.469-.725 0-1.362-.165-1.91-.496-.411-.295-.757-.722-1.037-1.28-.28-.59-.436-1.267-.47-2.03a2.97 2.97 0 0 0 .025-.415c0-.12-.008-.226-.026-.316-.165.138-.348.286-.548.442-.131.12-.27.244-.42.37-1.056.818-1.864 1.398-2.423 1.74l-.026.028c-3.083 1.72-4.682 2.606-4.796 2.66l-2.5 4.772c-.943 1.617-1.885 2.964-2.827 4.04-1.04 1.215-2.119 2.144-3.238 2.788-.81.487-1.652.8-2.526.938a5.17 5.17 0 0 1-1.19.135c-.377 0-.731-.045-1.062-.135a4.608 4.608 0 0 1-2.176-1.065 3.98 3.98 0 0 1-1.122-1.407c-.245-.625-.325-1.313-.24-2.065.16-1.72 1.182-3.325 3.067-4.817 1.7-1.34 4.35-2.757 7.947-4.248a49.978 49.978 0 0 0 3.811-1.777l1.482-3.833c-1.433 1.34-2.803 2.348-4.11 3.022-1.268.643-2.43.965-3.487.965-1.301 0-2.326-.493-3.074-1.48a4.234 4.234 0 0 1-.762-2.164c-1.37 1.16-2.558 2.08-3.563 2.76-1.205.8-2.336 1.416-3.392 1.849-1.056.42-2.047.664-2.972.73h-.445a9.03 9.03 0 0 1-.694-.027 4.918 4.918 0 0 1-1.73-.54c-.017 0-.034-.01-.051-.028a.219.219 0 0 1-.103-.027c-.011 0-.026-.01-.043-.027-.713-.385-1.307-.941-1.781-1.669l-.052-.08a.26.26 0 0 1-.051-.154h-.026c-2.786 1.37-5.584 2.18-8.393 2.426-1.17.102-2.201-.358-3.092-1.38a4.688 4.688 0 0 1-.84-1.642 5.218 5.218 0 0 1-.196-1.776c-4.802 4.275-8.128 6.413-9.978 6.413-.76 0-1.344-.28-1.756-.84-.428-.498-.602-1.157-.522-1.975.131-1.232.882-3.066 2.253-5.502 1.37-2.26 2.08-3.59 2.132-3.986.097-.992-.325-1.488-1.267-1.488-.92 0-2.033.427-3.34 1.28-1.103.728-2.356 1.771-3.76 3.13-.943.92-3.007 3.205-6.193 6.855-.428.47-.879.704-1.353.704-1.056 0-1.536-.524-1.439-1.57l.223-.73c1.256-2.364 2.338-4.97 3.246-7.82l-3.169 3.03a1.601 1.601 0 0 1-.325.253l-.891.866c-3.631 3.385-6.206 5.078-7.725 5.078-1.04 0-1.782-.47-2.227-1.407-.377-.764-.508-1.735-.394-2.914l.026-.135c-1.65 1.792-3.178 3.19-4.582 4.194l-2.227 1.308c-.725.313-1.385.469-1.978.469-.743 0-1.37-.165-1.885-.496-.428-.295-.765-.722-1.01-1.28-.446-.849-.603-1.985-.471-3.41.114-1.443.882-3.398 2.303-5.863.492-.77 1.051-1.491 1.68-2.165 1.107-1.25 2.329-2.225 3.665-2.922 1.416-.782 2.817-1.173 4.205-1.173.845 0 1.621.175 2.33.523a5.036 5.036 0 0 1 1.73 1.67l.967-1.12c.394-.474.797-.712 1.208-.712.383 0 .696.105.942.316.4.348.565.784.497 1.308-.035.33-.14.625-.317.884l-1.216 1.515c-.811 1.004-1.462 2.219-1.953 3.644-.4 1.13-.665 2.27-.797 3.418-.062.71.003 1.064.198 1.064l.822-.414c1.204-.836 2.712-2.132 4.522-3.888l1.807-1.641c.086-.067.168-.136.248-.208l4.557-4.582c.542-.613 1.136-.92 1.78-.92 1.154 0 1.708.713 1.662 2.138-.114 1.287-.493 2.835-1.138 4.645 1.815-1.828 3.497-3.244 5.044-4.248.88-.596 1.713-1.04 2.5-1.335.892-.313 1.734-.47 2.527-.47 1.388 0 2.436.428 3.143 1.282.76.835 1.065 1.948.917 3.337-.132.956-.7 2.276-1.704 3.96-1.325 2.05-2.102 3.415-2.33 4.094l-.197.677c0 .072.026.123.077.153l.762-.36c2.89-1.93 5.473-3.93 7.751-5.999a67.382 67.382 0 0 0 2.544-2.498l2.304-3.752c.034-.054.077-.118.128-.19l.394-.73 2.647-4.14c-4.225.384-8.696.932-13.412 1.641a1.37 1.37 0 0 1-1.071-.288 1.475 1.475 0 0 1-.54-1.02c-.068-.396.015-.76.249-1.091.245-.33.56-.52.942-.568 5.213-.8 10.138-1.392 14.774-1.777l-.026.027c.377-.054.757-.09 1.14-.108l2.551-3.987c.343-.553.788-.83 1.337-.83 1.067 0 1.544.502 1.43 1.507l-.249.811-1.404 2.22c1.798-.127 3.554-.205 5.267-.235.382-.018.714.11.994.387.28.295.428.659.445 1.092.017.385-.115.743-.394 1.073a1.4 1.4 0 0 1-.968.442c-2.015.054-4.088.16-6.218.316h-.017c-.348.012-.688.036-1.019.072l-3.289 5.186h-.026c-1.764 2.61-3.068 4.724-3.914 6.341-.628 1.269-.973 2.24-1.036 2.913-.068.662.006 1.176.223 1.543.211.45.574.676 1.087.676 1.502-.018 3.126-.39 4.874-1.118a17.044 17.044 0 0 0 2.33-1.128 3.136 3.136 0 0 1-.052-.568c.068-1.076.111-1.623.128-1.641a12.232 12.232 0 0 1 1.38-4.646 13.99 13.99 0 0 1 2.723-3.571c1.056-1.005 2.146-1.768 3.272-2.291 1.119-.536 2.132-.803 3.04-.803 1.273 0 2.28.397 3.023 1.19.742.854 1.022 1.874.84 3.058a8.468 8.468 0 0 1-1.26 3.355c-.33.47-.793 1.035-1.387 1.696-1.387 1.425-3.54 3.007-6.458 4.744-.514.313-1.019.608-1.515.884a.364.364 0 0 0-.07.055c.343.523.937.82 1.782.892h.343c1.108 0 2.552-.55 4.333-1.65.446-.295.917-.632 1.414-1.01 1.399-.992 2.932-2.261 4.599-3.807l.89-.838a.385.385 0 0 1 .129-.073c.08-.156.163-.303.248-.442.891-1.443 2.027-2.738 3.41-3.887a17.082 17.082 0 0 1 4.281-2.58c1.52-.643 2.94-.965 4.265-.965 1.336 0 2.473.346 3.41 1.038l.076-.073c.349-.523.802-.784 1.362-.784 1.073 0 1.553.505 1.439 1.515l-.274.803-1.336 2.219a686.724 686.724 0 0 0-4.334 10.246l1.31-.785c.811-.59 1.902-1.389 3.272-2.4.194-.155.351-.285.471-.387l2.296-2.038c.034-.03.077-.064.128-.1.314-.469.677-1.007 1.088-1.614.2-.313.47-.68.813-1.1.2-.241.497-.596.89-1.065 1.143-1.25 2.382-2.225 3.718-2.922 1.399-.782 2.792-1.173 4.18-1.173zm-36.801 3.23c.114-.488.17-.737.17-.75.052-.402-.005-.715-.17-.937-.2-.283-.488-.424-.865-.424-.611 0-1.248.165-1.91.496-.577.294-1.154.712-1.73 1.254a12.362 12.362 0 0 0-2.381 3.229c.017-.018.051-.028.103-.028a.255.255 0 0 0-.12.082c-.286.469-.577 1.154-.874 2.056a7.125 7.125 0 0 0-.394 1.696c.314-.193.637-.382.968-.568a38.558 38.558 0 0 0 5.695-4.122c.674-.626 1.176-1.287 1.508-1.985zm17.994-1.453c-.977 0-2.041.25-3.195.749a13.239 13.239 0 0 0-3.246 2.011c-1.039.866-1.895 1.822-2.57 2.868-.724 1.113-1.138 2.216-1.24 3.31-.08.993.284 1.489 1.095 1.489.771 0 1.653-.322 2.647-.965.925-.578 1.898-1.36 2.92-2.345 1.336-1.323 3.143-3.479 5.421-6.467-.462-.433-1.073-.65-1.832-.65zm-10.988 25.02c.69-.414 1.381-1.03 2.072-1.848 1.193-1.341 2.39-3.157 3.589-5.448l-5.465 2.372c-1.387.643-2.418 1.31-3.091 2.002-.731.68-1.137 1.392-1.216 2.138-.035.385.122.706.47.965.332.367.786.55 1.362.55.725 0 1.485-.243 2.279-.73zm31.731-21.845c-.2-.553-.457-.977-.77-1.272-.429-.384-.909-.577-1.44-.577-.856 0-1.778.277-2.766.83-.942.56-1.818 1.299-2.63 2.219a11.845 11.845 0 0 0-2.098 2.95c-.56 1.123-.882 2.2-.967 3.228-.149 1.233.042 1.85.574 1.85.473 0 1.133-.304 1.978-.912l2.62-2.219c1.554-1.527 3.386-3.56 5.5-6.097z" id="Fill-1" fill="#000" mask="url(#mask-2)"/></g></g></g></g></svg>