<?xml version="1.0" encoding="UTF-8" standalone="no"?>
<svg width="100%" height="100%" preserveAspectRatio="xMidYMid meet" viewBox="0 0 142 46" version="1.1" xmlns="http://www.w3.org/2000/svg" xmlns:xlink="http://www.w3.org/1999/xlink" xmlns:sketch="http://www.bohemiancoding.com/sketch/ns"><script xmlns=""/>
    <!-- Generator: Sketch 3.3.2 (12043) - http://www.bohemiancoding.com/sketch -->
    <title>kantega_logo</title>
    <desc>Created with Sketch.</desc>
    <defs>
        <path id="path-1" d="M0,46 L141.951353,46 L141.951353,0.00992156863 L0,0.00992156863 L0,46 Z"/>
    </defs>
    <g id="Page-1" stroke="none" stroke-width="1" fill="none" fill-rule="evenodd" sketch:type="MSPage">
        <g id="Hjem" sketch:type="MSArtboardGroup" transform="translate(-121.000000, -26.000000)">
            <g id="Toppmeny" sketch:type="MSLayerGroup">
                <g id="kantega_logo" transform="translate(121.000000, 26.000000)">
                    <mask id="mask-2" sketch:name="Clip 2" fill="white">
                        <use xlink:href="#path-1"/>
                    </mask>
                    <g id="Clip-2"/>
                    <path d="M38.9653824,20.2670588 C38.8170446,19.7139765 38.5686731,19.2898745 38.2202678,18.9952941 C37.8264704,18.6105176 37.355421,18.4180392 36.8071194,18.4180392 C35.9335368,18.4180392 35.0114789,18.6945804 34.0407744,19.2478431 C33.1159759,19.8070588 32.2480458,20.5466667 31.4371556,21.4666667 C30.5807021,22.3505882 29.8898866,23.3337255 29.364538,24.4160784 C28.7821496,25.5404627 28.4424801,26.6168627 28.3453583,27.645098 C28.1970205,28.8777176 28.3940048,29.4941176 28.9363112,29.4941176 C29.3987961,29.4941176 30.0526128,29.1905176 30.8975899,28.5831373 L33.5442027,26.3643137 C35.0799952,24.8369333 36.8871122,22.8046353 38.9653824,20.2670588 L38.9653824,20.2670588 Z M38.7427045,0.559215686 L38.7685694,0.58627451 C38.9968999,0.880854902 39.0881978,1.28980392 39.0424632,1.81294118 C38.991076,2.12556078 38.8341737,2.42934118 38.5714138,2.72392157 C38.5371556,2.74196078 38.5200265,2.76 38.5200265,2.77803922 C37.8920748,3.45757647 36.9013293,4.46470588 35.5481327,5.79960784 C34.0978142,7.17058824 32.9844246,8.17771765 32.2079638,8.82117647 C31.9453752,9.03169412 31.6884391,9.23301176 31.4371556,9.4254902 C30.0724825,10.5199294 28.6052063,11.596149 27.0351556,12.6545098 C25.1509578,13.8571843 23.2352425,14.9604627 21.2881809,15.9647059 C19.3412907,16.9388235 17.4769626,17.7745804 15.6955392,18.4721569 C15.6671049,18.4721569 15.644152,18.4901961 15.6270229,18.5262745 C15.6098938,18.5383608 15.6013293,18.5623529 15.6013293,18.5984314 C16.0638142,21.8335843 16.5006055,24.5454196 16.9117033,26.7341176 C17.2885428,28.6282353 17.6998118,30.0713725 18.1449964,31.0635294 C18.6759976,32.3443137 19.2299517,32.9937255 19.8065163,33.0117647 C20.3832521,32.9937255 21.1083257,32.7772549 21.9820796,32.3623529 C22.4272642,32.1518353 22.8983136,31.8992863 23.395228,31.6047059 C23.4121858,31.5866667 23.4207503,31.5686275 23.4207503,31.5505882 C24.0660024,31.2379686 24.594263,31.4995373 25.0051894,32.3352941 C25.3707238,33.1349725 25.2621255,33.7423529 24.6799083,34.1572549 C22.5843378,35.7086275 20.7943498,36.4211765 19.3097732,36.294902 L19.258386,36.294902 C18.4875778,36.2467373 17.8138914,36.0212471 17.2371556,35.6184314 C16.6263329,35.2215686 16.1124608,34.6654196 15.6955392,33.9498039 C15.6784101,33.9198588 15.6556285,33.9047059 15.6270229,33.9047059 C14.964813,32.756149 14.4279879,31.1207137 14.0170615,28.9980392 L13.1775657,23.3427451 C12.9093245,21.5027451 12.6352593,20.1227451 12.3553703,19.2027451 C12.3382413,19.1666667 12.3211122,19.1396078 12.3039831,19.1215686 C12.2755489,19.1035294 12.2440314,19.0945098 12.2097732,19.0945098 C12.1755151,19.0945098 12.1498215,19.112549 12.1326924,19.1486275 L6.76272859,26.8333333 C5.32971049,28.8717647 4.55307841,29.9690902 4.43317491,30.1254902 C3.92512666,30.871051 3.47977081,31.6348314 3.09727865,32.4164706 C2.66888058,33.1439922 2.10088058,33.4748314 1.39276478,33.4086275 L1.34154885,33.4086275 C0.816200241,33.3545098 0.453577805,33.1890902 0.253681544,32.912549 C0.0253510253,32.6179686 -0.0488178528,32.2180392 0.0310036188,31.7129412 L0.0568685163,31.6588235 L0.202294331,31.1356863 L0.202294331,31.1086275 L0.228159228,31.1086275 C0.742031363,30.1224235 1.31294331,29.1513725 1.94106634,28.1952941 C1.95237153,28.1772549 1.95802413,28.1592157 1.95802413,28.1411765 C2.2093076,27.7744392 2.9857684,26.6258824 4.2875778,24.6956863 L10.6768926,15.7031373 C12.047047,13.845098 13.2262123,12.005098 14.2138745,10.1831373 L14.2138745,10.1019608 L15.5499421,7.20666667 C15.944082,6.22046275 16.2066707,5.3336549 16.3378794,4.54588235 C16.3550084,4.28738039 16.2894041,4.14 16.1408951,4.10392157 L16.1152014,4.07686275 C15.9553872,4.04673725 15.684234,4.11889412 15.3017419,4.29333333 C14.8390856,4.51575686 14.4194234,4.78345882 14.0425838,5.09607843 C12.90076,6.03411765 11.8187165,7.05026667 10.7966248,8.14470588 C10.7623667,8.1627451 10.7452376,8.18078431 10.7452376,8.19882353 C9.82609168,9.22705882 8.61558022,10.7905176 7.11387455,12.8890196 C6.33741375,14.0013176 5.56095296,14.3321569 4.78432087,13.8811765 C4.38469964,13.6226745 4.15345718,13.3188941 4.09059349,12.9701961 C4.03920627,12.621498 4.14780458,12.212549 4.41604584,11.7435294 C5.51813028,9.74712941 6.92836671,7.86203137 8.64692642,6.08823529 C10.131503,4.40463529 11.6474258,3.09967843 13.1946948,2.17372549 C14.7477877,1.15144314 16.0610736,0.682603922 17.1343812,0.766666667 C18.1222147,0.820784314 18.8387238,1.26581176 19.2842509,2.10156863 C19.649614,2.79301176 19.7409119,3.68 19.5581448,4.76235294 C19.3126852,6.23561569 18.7016912,7.95529412 17.7253341,9.92156863 C17.0173896,11.4307294 16.052509,13.1505882 14.8305211,15.0807843 C14.813392,15.0988235 14.8048275,15.1258824 14.8048275,15.1619608 C14.8048275,15.1920863 14.813392,15.2160784 14.8305211,15.2341176 C14.8476502,15.2521569 14.8733438,15.2701961 14.9076019,15.2882353 L14.9846828,15.2882353 C16.4978649,14.7169333 18.079392,14.0134039 19.7294355,13.1776471 C21.5793752,12.2396078 23.395228,11.1873804 25.1764801,10.0207843 L25.1764801,10.0478431 C26.9407744,8.90523922 28.5824246,7.70581176 30.1010881,6.44901961 C30.7977274,5.91379608 31.451544,5.37568627 32.0623667,4.8345098 C32.4049481,4.47372549 33.1128926,3.77921569 34.1865428,2.75098039 C35.2084632,1.69261961 35.876497,0.998290196 36.1904729,0.66745098 C36.6358287,0.180392157 37.1068782,-0.0360784314 37.6036212,0.0180392157 L37.6293148,0.0180392157 C37.9890253,0.0180392157 38.3602123,0.198431373 38.7427045,0.559215686 L38.7427045,0.559215686 Z M133.389387,15.3152941 C134.245841,15.3152941 135.031037,15.4895529 135.744634,15.8384314 C136.418492,16.2352941 136.986492,16.7914431 137.448977,17.5070588 L138.442463,16.3886275 C138.836603,15.9136549 139.24753,15.6760784 139.675756,15.6760784 C140.02399,15.6760784 140.321008,15.7812471 140.566468,15.9917647 C140.966089,16.3404627 141.140292,16.7764706 141.088905,17.2996078 C141.037517,17.6302667 140.914873,17.9248471 140.720801,18.1835294 L139.581546,19.6988235 C138.753698,20.7030667 138.0771,21.9176471 137.551923,23.3427451 C137.169259,24.4732627 136.912323,25.6126196 136.781115,26.7611765 C136.615476,28.2164 136.615476,29.0492706 136.781115,29.2596078 C136.798072,29.2776471 136.840895,29.3317647 136.909583,29.4219608 C137.040791,29.4881647 137.24634,29.4520863 137.526058,29.3137255 L140.395177,27.5909804 C140.857834,27.2783608 141.294454,27.503851 141.705723,28.267451 C142.133949,29.0371843 142.002569,29.647451 141.311583,30.0984314 C139.878565,31.0545098 138.88799,31.688949 138.339689,32.0015686 C137.448977,32.5187529 136.772379,32.7772549 136.310065,32.7772549 C135.070948,32.7772549 134.311616,32.3082353 134.031727,31.3701961 C133.854784,30.7447765 133.731969,29.9631373 133.663624,29.025098 C133.612236,28.2073804 133.612236,27.4616392 133.663624,26.7882353 L133.689146,26.6529412 C132.039103,28.4447765 130.520268,29.8428157 129.132813,30.8470588 L126.88034,32.154902 C126.155267,32.4675216 125.504362,32.6239216 124.927797,32.6239216 C124.202552,32.6239216 123.565865,32.458502 123.017735,32.1278431 C122.606808,31.8332627 122.261315,31.4062745 121.981426,30.8470588 C121.701708,30.2577176 121.544806,29.5812471 121.510376,28.8176471 C121.527505,28.6973255 121.536241,28.5591451 121.536241,28.4027451 C121.536241,28.2826039 121.527505,28.1772549 121.510376,28.0870588 C121.34491,28.2254196 121.162142,28.3728 120.962246,28.5290196 C120.831037,28.6493412 120.691093,28.772549 120.542584,28.8988235 C119.486405,29.7165412 118.678427,30.2968627 118.118992,30.6396078 L118.093127,30.6666667 C115.009894,32.3865255 113.411238,33.2733333 113.296987,33.327451 L110.796314,38.0988235 C109.854215,39.7164 108.912116,41.0632078 107.970017,42.1396078 C106.930796,43.3541882 105.851493,44.2832078 104.732451,44.9266667 C103.921732,45.4137255 103.079667,45.7263451 102.205913,45.8647059 C101.823421,45.954902 101.42654,46 101.015443,46 C100.638774,46 100.284545,45.954902 99.9536116,45.8647059 C99.1427214,45.7083059 98.4176478,45.3536549 97.7782195,44.8003922 C97.2813052,44.3975765 96.9073776,43.9285569 96.6562654,43.3933333 C96.4106345,42.7679137 96.3306417,42.0795373 96.4162871,41.3278431 C96.5762726,39.6081647 97.5983643,38.0026745 99.4825621,36.5113725 C101.183821,35.1705176 103.833175,33.7544392 107.43028,32.2631373 C108.84634,31.6678431 110.116803,31.0756157 111.241498,30.4862745 L112.723334,26.6529412 C111.289973,27.9937961 109.919648,29.0011059 108.612357,29.6745098 C107.344634,30.3179686 106.18277,30.6396078 105.12642,30.6396078 C103.82461,30.6396078 102.799778,30.1465961 102.051923,29.1603922 C101.59509,28.4988941 101.340895,27.7773255 101.289679,26.9956863 C99.9193534,28.156149 98.7316236,29.076149 97.7268323,29.7556863 C96.5219735,30.5553647 95.3914548,31.1717647 94.3351049,31.6047059 C93.2789264,32.0257412 92.2883522,32.2690902 91.3632111,32.3352941 L90.9180265,32.3352941 C90.6895247,32.3352941 90.4582823,32.3262745 90.2241279,32.3082353 C89.5788758,32.2239922 89.0023112,32.0436 88.4940917,31.7670588 C88.4771339,31.7670588 88.4598335,31.7580392 88.4428758,31.74 C88.4084463,31.74 88.3741882,31.7309804 88.33993,31.7129412 C88.3286248,31.7129412 88.3144077,31.7039216 88.2971074,31.6858824 C87.5835103,31.3011059 86.9896454,30.7447765 86.5158552,30.0172549 L86.464468,29.9360784 C86.4302099,29.8879137 86.4129095,29.8368627 86.4129095,29.7827451 L86.3873872,29.7827451 C83.6010012,31.1537255 80.8031387,31.9624235 77.9941423,32.2090196 C76.8235416,32.311302 75.7928854,31.851302 74.902345,30.8290196 C74.5255054,30.36 74.2456164,29.8128706 74.0628492,29.187451 C73.8973824,28.6282353 73.831778,28.0360078 73.8658649,27.4105882 C69.0640724,31.6858824 65.7381206,33.8235294 63.8881809,33.8235294 C63.1288492,33.8235294 62.5435489,33.5439216 62.1324511,32.9847059 C61.7042244,32.4855608 61.530193,31.8271294 61.6100145,31.0094118 C61.7413945,29.7767922 62.4923329,27.9427451 63.8626586,25.507451 C65.2329843,23.2465961 65.9436695,21.9176471 65.9950567,21.5207843 C66.0921785,20.5286275 65.6696043,20.032549 64.7275054,20.032549 C63.8083595,20.032549 62.6949698,20.4595373 61.3873366,21.3133333 C60.2854234,22.0408549 59.0320893,23.0842431 57.6275054,24.4431373 C56.6854065,25.3631373 54.6213534,27.6481647 51.4353462,31.2980392 C51.0071194,31.7670588 50.556111,32.0015686 50.0821496,32.0015686 C49.025971,32.0015686 48.5463571,31.4784314 48.6433076,30.4321569 L48.8659855,29.7015686 C50.1222316,27.3384314 51.2041037,24.7317647 52.1119445,21.8815686 L48.9430663,24.9121569 C48.8402919,25.0144392 48.7318649,25.098502 48.6177853,25.1647059 L47.7269023,26.0305882 C44.0955392,29.4160078 41.5205259,31.1086275 40.0016912,31.1086275 C38.9626417,31.1086275 38.2202678,30.6396078 37.7749119,29.7015686 C37.3982437,28.9379686 37.2666924,27.9669176 37.3809433,26.7882353 L37.4066369,26.6529412 C35.7565935,28.4447765 34.2293655,29.8428157 32.8246104,30.8470588 L30.5978311,32.154902 C29.8727575,32.4675216 29.2132883,32.6239216 28.6195947,32.6239216 C27.8772207,32.6239216 27.249269,32.458502 26.7353969,32.1278431 C26.3071701,31.8332627 25.9702413,31.4062745 25.7246104,30.8470588 C25.2794258,29.9992157 25.1223522,28.8627451 25.2535609,27.4376471 C25.3678118,25.9945098 26.1358794,24.0403216 27.557421,21.574902 C28.0485115,20.8051686 28.6081182,20.0836 29.23607,19.4101961 C30.343807,18.1595373 31.5656236,17.1854196 32.9018625,16.4878431 C34.3177515,15.7062039 35.7194234,15.3152941 37.1068782,15.3152941 C37.9518552,15.3152941 38.7284873,15.4895529 39.4364318,15.8384314 C40.1274186,16.2352941 40.7039831,16.7914431 41.1666393,17.5070588 L42.1342606,16.3886275 C42.5282292,15.9136549 42.9307624,15.6760784 43.3418601,15.6760784 C43.7245235,15.6760784 44.0384994,15.7812471 44.283959,15.9917647 C44.6837515,16.3404627 44.8493896,16.7764706 44.7807021,17.2996078 C44.7464439,17.6302667 44.6409288,17.9248471 44.4639855,18.1835294 L43.2476502,19.6988235 C42.4369312,20.7030667 41.7860265,21.9176471 41.2951074,23.3427451 C40.8953148,24.4732627 40.6298142,25.6126196 40.4984343,26.7611765 C40.4355706,27.4708392 40.5013462,27.8254902 40.6955899,27.8254902 L41.517614,27.4105882 C42.7224729,26.5748314 44.2298311,25.2788941 46.0396888,23.5231373 L47.8469771,21.8815686 C47.9326224,21.8153647 48.0151846,21.7462745 48.0951773,21.6741176 L52.6515103,17.0921569 C53.1939879,16.4788235 53.7878528,16.1721569 54.4329337,16.1721569 C55.5864053,16.1721569 56.1401882,16.8847059 56.0944536,18.3098039 C55.9802027,19.5965412 55.6006224,21.1450275 54.9555416,22.954902 C56.7710519,21.1269882 58.4526128,19.7109098 59.9998818,18.7066667 C60.8792883,18.1113725 61.7127889,17.6663451 62.5007262,17.3717647 C63.3916092,17.0591451 64.2336743,16.9027451 65.0272642,16.9027451 C66.4147189,16.9027451 67.4625042,17.3297333 68.1704487,18.1835294 C68.9299517,19.0192863 69.2353631,20.1317647 69.0870253,21.5207843 C68.9554741,22.4768627 68.3874741,23.7967922 67.3825115,25.4803922 C66.0579204,27.5309098 65.2814596,28.8957569 65.0529578,29.5752941 L64.8559735,30.2517647 C64.8559735,30.3239216 64.8816671,30.3749725 64.9332256,30.405098 L65.6952979,30.0443137 C68.5844584,28.1141176 71.1680362,26.1148314 73.4463739,24.0462745 C74.531158,23.0239922 75.379047,22.191302 75.9898697,21.5478431 L78.2939011,17.7956863 C78.3281592,17.7415686 78.3709819,17.6784314 78.4223691,17.6062745 C78.5707069,17.3297333 78.7019156,17.0862039 78.8161665,16.8756863 L81.4627793,12.7356863 C77.2375513,13.1204627 72.7668637,13.6677725 68.0505452,14.3772549 C67.650924,14.4313725 67.2941255,14.3352235 66.9799783,14.0886275 C66.6660024,13.8301255 66.4861472,13.4902667 66.4404125,13.0694118 C66.3718963,12.672549 66.454801,12.308698 66.6889554,11.9780392 C66.934415,11.6473804 67.2483908,11.4579686 67.6310543,11.4098039 C72.8439445,10.6101255 77.7685525,10.0177176 82.4048782,9.63294118 L82.3790133,9.66 C82.7558528,9.60588235 83.1356043,9.56980392 83.5182678,9.55176471 L86.0703281,5.56509804 C86.4129095,5.01183529 86.8584367,4.73529412 87.4065669,4.73529412 C88.474222,4.73529412 88.950924,5.23732549 88.8366731,6.24156863 L88.5883016,7.05333333 L87.1837177,9.27215686 C88.9822702,9.14588235 90.738,9.06777255 92.4509071,9.03764706 C92.8333993,9.01960784 93.1646755,9.14894902 93.4445645,9.4254902 C93.7242823,9.72007059 93.8727913,10.0839216 93.8897491,10.5168627 C93.9068782,10.9016392 93.7754982,11.2595373 93.4959517,11.5901961 C93.2275392,11.8667373 92.9048275,12.0141176 92.5279879,12.0321569 C90.5125814,12.0862745 88.4399638,12.1914431 86.3101351,12.3478431 L86.2931773,12.3478431 C85.944772,12.3599294 85.6051025,12.3839216 85.2739976,12.42 L81.9850446,17.6062745 L81.959351,17.6062745 C80.1950567,20.2160078 78.8905066,22.3296627 78.0453583,23.9470588 C77.4172352,25.2159373 77.0719131,26.1869882 77.0092207,26.8603922 C76.9405332,27.5218902 77.0148733,28.0360078 77.2317274,28.4027451 C77.4431001,28.8537255 77.8055513,29.0792157 78.3194234,29.0792157 C79.8211291,29.0611765 81.4454789,28.6884863 83.1926441,27.9607843 C84.1004849,27.5940471 84.877117,27.2181098 85.5223691,26.8333333 C85.488111,26.6469882 85.4708106,26.4575765 85.4708106,26.265098 C85.5393269,25.188698 85.5821496,24.6415686 85.5992786,24.6235294 C85.7477877,22.9879137 86.207532,21.4396078 86.9783402,19.9784314 C87.6919373,18.6435294 88.599778,17.4529412 89.7016912,16.4066667 C90.758041,15.4024235 91.8484777,14.6388235 92.9735151,14.1156863 C94.0925573,13.5804627 95.1059131,13.3129412 96.0139252,13.3129412 C97.2869578,13.3129412 98.2948323,13.7098039 99.037035,14.5035294 C99.7794089,15.3573255 100.059127,16.3765412 99.8765308,17.5611765 C99.6937636,18.7757569 99.2741013,19.8943686 98.6173727,20.9164706 C98.2862678,21.3854902 97.8237829,21.9506588 97.229918,22.6121569 C95.8426345,24.0372549 93.6898528,25.6187529 90.7722581,27.3564706 C90.258386,27.6690902 89.7530784,27.963851 89.2565066,28.2403922 C89.2279011,28.2584314 89.2051194,28.2764706 89.1878191,28.2945098 C89.5304005,28.8176471 90.1242654,29.1152941 90.9694138,29.187451 L91.3119952,29.187451 C92.4195609,29.187451 93.8640555,28.6372549 95.6454789,27.5368627 C96.0908347,27.2422824 96.5618842,26.9054902 97.0586273,26.5266667 C98.4575585,25.5345098 99.9906104,24.2658118 101.657783,22.7203922 L102.548495,21.8815686 C102.582753,21.8514431 102.625575,21.827451 102.676963,21.8094118 C102.756955,21.6531922 102.839689,21.5058118 102.925334,21.367451 C103.816217,19.9243137 104.952217,18.6285569 106.334191,17.48 C107.675911,16.3855608 109.103276,15.5258118 110.616458,14.9003922 C112.135122,14.2569333 113.556835,13.9352941 114.881426,13.9352941 C116.217493,13.9352941 117.353836,14.2811059 118.290282,14.972549 L118.367363,14.9003922 C118.715597,14.3772549 119.169346,14.1156863 119.728953,14.1156863 C120.802432,14.1156863 121.282046,14.6207843 121.167795,15.6309804 L120.893901,16.4337255 L119.557662,18.652549 C117.725023,22.9098039 116.280357,26.3251686 115.224007,28.8988235 L116.534552,28.1141176 C117.345271,27.5247765 118.435708,26.725098 119.806034,25.714902 C120.000277,25.558502 120.15718,25.4293412 120.277083,25.3270588 L122.57255,23.2886275 C122.606808,23.258502 122.649631,23.2254902 122.701018,23.1894118 C123.014994,22.7203922 123.377616,22.1822824 123.788543,21.574902 C123.988439,21.2622824 124.259592,20.8953647 124.602174,20.4745098 C124.80207,20.2340471 125.099088,19.8792157 125.492885,19.4101961 C126.634881,18.1595373 127.873998,17.1854196 129.210065,16.4878431 C130.608825,15.7062039 132.001932,15.3152941 133.389387,15.3152941 L133.389387,15.3152941 Z M96.5875778,18.5443137 C96.7018287,18.0572549 96.7588685,17.8077725 96.7588685,17.7956863 C96.8102557,17.3928706 96.7532159,17.0800706 96.5875778,16.8576471 C96.3876815,16.5749725 96.0995706,16.4337255 95.722731,16.4337255 C95.111737,16.4337255 94.4750495,16.5991451 93.8126683,16.9298039 C93.2361037,17.2243843 92.6593679,17.6423529 92.0828034,18.1835294 C91.106275,19.1396078 90.3126852,20.2160078 89.7016912,21.412549 C89.7189916,21.3945098 89.7530784,21.3854902 89.8046369,21.3854902 C89.7530784,21.4035294 89.7131677,21.4305882 89.6847334,21.4666667 C89.3991918,21.9356863 89.1078263,22.6211765 88.8109795,23.5231373 C88.599778,24.1184314 88.4683981,24.6836 88.4170109,25.2188235 C88.731158,25.0263451 89.0536984,24.8369333 89.3849747,24.6505882 C91.4118577,23.4479137 93.3102726,22.0740471 95.0803908,20.5286275 C95.7540772,19.9032078 96.2564729,19.2418902 96.5875778,18.5443137 L96.5875778,18.5443137 Z M114.581667,17.0921569 C113.60531,17.0921569 112.540567,17.3416392 111.387267,17.8407843 C110.250924,18.3278431 109.169052,18.9983608 108.141308,19.8521569 C107.102087,20.7180392 106.245633,21.6741176 105.571947,22.7203922 C104.846702,23.8328706 104.432692,24.936149 104.330089,26.0305882 C104.250097,27.0227451 104.61546,27.5188235 105.426179,27.5188235 C106.196987,27.5188235 107.079134,27.1971843 108.07262,26.5537255 C108.997761,25.9764706 109.971206,25.1948314 110.993127,24.2086275 C112.329366,22.8858118 114.136483,20.7301255 116.414478,17.7415686 C115.951993,17.3086275 115.34117,17.0921569 114.581667,17.0921569 L114.581667,17.0921569 Z M103.593539,42.112549 C104.284355,41.6976471 104.97517,41.0812471 105.665986,40.2635294 C106.859368,38.9226745 108.055662,37.1066667 109.254697,34.8156863 L103.790352,37.1878431 C102.403069,37.831302 101.372413,38.4987529 100.698555,39.1901961 C99.9678287,39.8697333 99.5623836,40.5822824 99.4825621,41.3278431 C99.448304,41.7126196 99.6052063,42.0344392 99.9536116,42.2929412 C100.284545,42.6596784 100.738637,42.8431373 101.315201,42.8431373 C102.040275,42.8431373 102.799778,42.5996078 103.593539,42.112549 L103.593539,42.112549 Z M135.325144,20.2670588 C135.125247,19.7139765 134.868311,19.2898745 134.554335,18.9952941 C134.126109,18.6105176 133.646323,18.4180392 133.115322,18.4180392 C132.258869,18.4180392 131.336811,18.6945804 130.348977,19.2478431 C129.406878,19.8070588 128.530555,20.5466667 127.719665,21.4666667 C126.863211,22.3505882 126.163831,23.3337255 125.621353,24.4160784 C125.061918,25.5404627 124.739206,26.6168627 124.653561,27.645098 C124.505223,28.8777176 124.696384,29.4941176 125.227556,29.4941176 C125.701346,29.4941176 126.360815,29.1905176 127.205793,28.5831373 L129.82654,26.3643137 C131.379633,24.8369333 133.212444,22.8046353 135.325144,20.2670588 L135.325144,20.2670588 Z" id="Fill-1" fill="#000000" sketch:type="MSShapeGroup" mask="url(#mask-2)"/>
                </g>
            </g>
        </g>
    </g>
</svg>
