<svg viewBox="0 0 640 480" xmlns="http://www.w3.org/2000/svg"><script/><g id="g10"><g id="g12" fill="#000"><path d="M157.224 194.858h-11.616c-3.636 0-4.08.45-8.295 4.693-2.12 2.13-37.1 37.358-37.1 37.358v-58.79c0-1.974-1.077-3.062-3.06-3.062H79.37c-1.982 0-3.063 1.088-3.063 3.063v7.902c0 1.995 1.08 3.076 3.063 3.076h6.507v72.51h-6.474c-1.98 0-3.06 1.08-3.06 3.056v7.907c0 1.982 1.08 3.098 3.06 3.098h27.202c1.984 0 3.072-1.08 3.072-3.062v-7.91c0-1.996-1.088-3.087-3.072-3.087h-6.39v-5.866l13.93-14.147 24.52 29.974c3.225 4.098 3.225 4.098 7.944 4.098h10.59c1.97 0 3.054-1.08 3.054-3.062v-7.91c0-1.982-1.083-3.06-3.053-3.06h-8.734l-24.394-30.106 22.295-22.603h10.857c2.013 0 3.063-.993 3.063-2.946v-8.053c0-1.982-1.085-3.07-3.063-3.07" id="path14"/><path d="M253.02 261.637h-6.442V227.05c0-20.59-12.97-33.894-33.026-33.894-9.248 0-17.01 2.852-23.078 8.47v-3.664c0-1.982-1.084-3.07-3.06-3.07H169.87c-1.986 0-3.07 1.053-3.07 3.045v7.9c0 1.982 1.084 3.086 3.066 3.086h6.435v52.714h-6.434c-1.982 0-3.066 1.077-3.066 3.06v7.91c0 1.974 1.084 3.06 3.066 3.06h27.055c1.983 0 3.063-1.086 3.063-3.06v-7.91c0-1.983-1.08-3.06-3.062-3.06h-6.446v-32.12c0-13.192 9.276-22.768 22.046-22.768 12.435 0 19.862 8.07 19.862 21.61v33.277h-6.43c-1.99 0-3.076 1.077-3.076 3.06v7.91c0 1.974 1.087 3.06 3.076 3.06h27.068c1.982 0 3.065-1.086 3.065-3.06v-7.91c0-1.983-1.083-3.06-3.065-3.06" id="path16"/><path d="M296.97 263.52c-14.894 0-26.57-12.504-26.57-28.46 0-15.964 11.308-28.013 26.29-28.013 14.98 0 26.72 12.498 26.72 28.447 0 15.978-11.363 28.027-26.44 28.027zm0-70.24c-23.172 0-41.325 18.548-41.325 42.214 0 23.417 18.03 41.777 41.046 41.777 23.27 0 41.49-18.537 41.49-42.21 0-23.432-18.096-41.78-41.21-41.78" id="path18"/><path d="M458.39 194.893h-27.798c-1.982 0-3.07 1.087-3.07 3.07v7.902c0 1.975 1.088 3.058 3.07 3.058h6.247l-13.248 42.812-18.745-54.545a3.62 3.62 0 0 0-3.403-2.438h-5.542a3.608 3.608 0 0 0-3.416 2.438l-18.56 54.52-13.254-42.787h6.255c1.98 0 3.06-1.083 3.06-3.058v-7.903c0-1.982-1.08-3.07-3.06-3.07H338.82c-1.987 0-3.076 1.088-3.076 3.07v7.903c0 1.975 1.09 3.058 3.077 3.058h6.603l22.03 64.675a3.608 3.608 0 0 0 3.375 2.375h5.988a3.59 3.59 0 0 0 3.393-2.438l18.434-53 18.346 53a3.59 3.59 0 0 0 3.403 2.438h5.99a3.59 3.59 0 0 0 3.37-2.368l22.042-64.682h6.595c1.992 0 3.08-1.083 3.08-3.058v-7.903c0-1.982-1.088-3.07-3.08-3.07" id="path20"/><path d="M497.73 261.637h-6.438v-63.675c0-1.982-1.086-3.07-3.073-3.07h-17.707c-1.985 0-3.066 1.088-3.066 3.07v7.903c0 1.975 1.08 3.058 3.066 3.058h6.447v52.714h-11.702c-1.977 0-3.062 1.077-3.062 3.06v7.91c0 1.974 1.085 3.06 3.062 3.06h32.47c1.99 0 3.077-1.086 3.077-3.06v-7.91c0-1.983-1.086-3.06-3.076-3.06" id="path22"/><path d="M560.627 234.592h-7.787c-1.987 0-3.073 1.077-3.073 3.06v14.97c0 5.146-3.666 10.478-9.804 10.478-7.707 0-10.99-3.206-10.99-10.7v-43.473h18.806c1.98 0 3.068-1.087 3.068-3.062v-7.903c0-1.982-1.088-3.07-3.07-3.07h-18.805v-16.8c0-1.983-1.085-3.07-3.066-3.07h-8.19c-1.99 0-3.077 1.087-3.077 3.07v16.8h-8.562c-1.982 0-3.07 1.088-3.07 3.07v7.903c0 1.975 1.088 3.062 3.07 3.062h8.562v44.193c0 14.49 9.48 23.856 24.14 23.856 15.137 0 24.913-9.06 24.913-23.09V237.65c0-1.98-1.082-3.058-3.066-3.058" id="path24"/><path d="M483.948 184.69a8.98 8.98 0 1 0 0-17.96c-4.953 0-8.98 4.03-8.98 8.98 0 4.96 4.027 8.98 8.98 8.98" id="path26"/></g></g></svg>