<?xml version="1.0" encoding="UTF-8"?>
<!-- Generator: Adobe Illustrator 19.1.0, SVG Export Plug-In . SVG Version: 6.00 Build 0)  -->
<svg version="1.1" id="Layer_1" xmlns="http://www.w3.org/2000/svg"
     xmlns:xlink="http://www.w3.org/1999/xlink" x="0px" y="0px" viewBox="-134
                                                                         361 342
                                                                         71" width="100%" height="100%" preserveAspectRatio="xMidYMid meet">
<style type="text/css">
	.st0{fill:#000000;}
	.st1{fill:#000000;}
</style>
<g>
	<path class="st0" d="M-3.9,418.1c-2.5,1.2-4.9,1.6-7.5,1.6c-11.8,0-15.2-12.8-15.2-20.5h23.5c0-7.6-2.4-16-15.1-16   c-12.4,0-16.7,7.9-16.7,18.7c0,15.8,8.7,22.2,19.6,22.2c4.9,0,8-0.8,11.5-2.2v-3.8L-3.9,418.1L-3.9,418.1z M-26.4,395.4   c0.2-2.2,1.4-8.8,7.8-8.8c6.2,0,7.3,5.8,7.3,8.8H-26.4z"/>
	<path class="st0" d="M79.8,424.1c11.5,0,17.4-7.2,17.4-20.4c0-13.2-5.8-20.5-17.4-20.5c-11.5,0-17.3,7.2-17.3,20.5   C62.5,416.9,68.2,424.1,79.8,424.1 M71.5,403.6c0-7.1,0.9-17,8.2-17c7.4,0,8.3,9.9,8.3,17c0,7.1-0.9,17-8.3,17   C72.4,420.6,71.5,410.8,71.5,403.6"/>
	<path class="st0" d="M189.6,422.1c-3.4,1.2-6.9,2-10.5,2c-12.4,0-19.7-7.5-19.7-22c0-11.7,5.4-18.9,16.7-18.9   c10.6,0,14.1,5.6,14.1,13.6h-8.7c0-4.7-0.5-10.2-5.7-10.2c-4.8,0-7.3,5.6-7.3,12.7c0,9.5,4,20.4,14.1,20.4c2.4,0,4.7-0.6,7-1.5   L189.6,422.1L189.6,422.1z"/>
	<path class="st1" d="M154.5,374.4c0,3-2.4,5.5-5.5,5.5c-3,0-5.5-2.4-5.5-5.5c0-3,2.4-5.5,5.5-5.5S154.5,371.3,154.5,374.4"/>
	<path class="st0" d="M-134,400.1c0.9-3,12.9-16.9,20.4-16.9c6.9,0,9.5,5.6,9.7,9.7h0.2c1.4-3,4.1-9.7,11.9-9.7   c8.3,0,9.9,6.8,9.9,13.5v26.5h-8.3V398c0-4.5-0.7-8.6-4.8-8.6c-7.3,0-8.7,12.8-8.7,17.6v16.3h-8.3v-24.6c0-4.9-0.4-9.4-4.9-9.4   c-7.7,0-8.6,13.5-8.6,17.7v16.2h-8.5C-134,423.2-134,400.1-134,400.1z"/>
	<path class="st0" d="M3.3,400.1c0.9-3,12.9-16.9,20.4-16.9c6.9,0,9.5,5.6,9.7,9.7h0.2c1.4-3,4.1-9.7,11.9-9.7   c8.3,0,9.9,6.8,9.9,13.5v26.5h-8.3V398c0-4.5-0.7-8.6-4.8-8.6c-7.3,0-8.7,12.8-8.7,17.6v16.3h-8.5v-24.6c0-4.9-0.4-9.4-4.9-9.4   c-7.7,0-8.6,13.5-8.6,17.7v16.2H3.3V400.1z"/>
	<path class="st0" d="M-73.7,400.1c1.3-2.9,13.6-16.9,22.3-16.9c6.9,0,9.9,5.7,9.9,11.4v28.6h-8.3v-24.5c0-4.9-0.7-9.4-4.9-9.4   c-8.2,0-10.6,12.8-10.6,17.7v16.2h-8.3L-73.7,400.1L-73.7,400.1z"/>
	<path class="st0" d="M104.3,400.1c1.3-2.9,13.6-16.9,22.3-16.9c6.9,0,9.9,5.7,9.9,11.4v28.6h-8.3v-24.5c0-4.9-0.7-9.4-4.9-9.4   c-8.2,0-10.5,12.8-10.5,17.7v16.2h-8.3v-23.1L104.3,400.1L104.3,400.1z"/>
	<rect x="144.6" y="384.5" class="st0" width="8.3" height="38.7"/>
</g>
<script xmlns=""/></svg>
