<svg version="1.1" id="Layer_1" xmlns="http://www.w3.org/2000/svg" x="0" y="0" viewBox="-134 361 342 71" width="100%" height="100%" preserveAspectRatio="xMidYMid meet"><style>.st0{fill:#000}</style><path class="st0" d="M-3.9 418.1c-2.5 1.2-4.9 1.6-7.5 1.6-11.8 0-15.2-12.8-15.2-20.5h23.5c0-7.6-2.4-16-15.1-16-12.4 0-16.7 7.9-16.7 18.7 0 15.8 8.7 22.2 19.6 22.2 4.9 0 8-.8 11.5-2.2v-3.8h-.1zm-22.5-22.7c.2-2.2 1.4-8.8 7.8-8.8 6.2 0 7.3 5.8 7.3 8.8h-15.1zM79.8 424.1c11.5 0 17.4-7.2 17.4-20.4s-5.8-20.5-17.4-20.5c-11.5 0-17.3 7.2-17.3 20.5 0 13.2 5.7 20.4 17.3 20.4m-8.3-20.5c0-7.1.9-17 8.2-17 7.4 0 8.3 9.9 8.3 17s-.9 17-8.3 17c-7.3 0-8.2-9.8-8.2-17M189.6 422.1c-3.4 1.2-6.9 2-10.5 2-12.4 0-19.7-7.5-19.7-22 0-11.7 5.4-18.9 16.7-18.9 10.6 0 14.1 5.6 14.1 13.6h-8.7c0-4.7-.5-10.2-5.7-10.2-4.8 0-7.3 5.6-7.3 12.7 0 9.5 4 20.4 14.1 20.4 2.4 0 4.7-.6 7-1.5v3.9z"/><path d="M154.5 374.4c0 3-2.4 5.5-5.5 5.5-3 0-5.5-2.4-5.5-5.5 0-3 2.4-5.5 5.5-5.5s5.5 2.4 5.5 5.5"/><path class="st0" d="M-134 400.1c.9-3 12.9-16.9 20.4-16.9 6.9 0 9.5 5.6 9.7 9.7h.2c1.4-3 4.1-9.7 11.9-9.7 8.3 0 9.9 6.8 9.9 13.5v26.5h-8.3V398c0-4.5-.7-8.6-4.8-8.6-7.3 0-8.7 12.8-8.7 17.6v16.3h-8.3v-24.6c0-4.9-.4-9.4-4.9-9.4-7.7 0-8.6 13.5-8.6 17.7v16.2h-8.5v-23.1zM3.3 400.1c.9-3 12.9-16.9 20.4-16.9 6.9 0 9.5 5.6 9.7 9.7h.2c1.4-3 4.1-9.7 11.9-9.7 8.3 0 9.9 6.8 9.9 13.5v26.5h-8.3V398c0-4.5-.7-8.6-4.8-8.6-7.3 0-8.7 12.8-8.7 17.6v16.3h-8.5v-24.6c0-4.9-.4-9.4-4.9-9.4-7.7 0-8.6 13.5-8.6 17.7v16.2H3.3v-23.1zM-73.7 400.1c1.3-2.9 13.6-16.9 22.3-16.9 6.9 0 9.9 5.7 9.9 11.4v28.6h-8.3v-24.5c0-4.9-.7-9.4-4.9-9.4-8.2 0-10.6 12.8-10.6 17.7v16.2h-8.3l-.1-23.1zM104.3 400.1c1.3-2.9 13.6-16.9 22.3-16.9 6.9 0 9.9 5.7 9.9 11.4v28.6h-8.3v-24.5c0-4.9-.7-9.4-4.9-9.4-8.2 0-10.5 12.8-10.5 17.7v16.2h-8.3v-23.1h-.2zM144.6 384.5h8.3v38.7h-8.3z"/><script/></svg>