<svg xmlns="http://www.w3.org/2000/svg" viewBox="0 0 1162.9 309.5"><path d="M1100.8 223.3c-3.3-2.7-5.7-5.4-7.4-8.1-1.6-2.7-2.9-6-3.7-10.2-.8-4.1-1.3-7.4-1.4-9.7-.1-2.3-.2-5.5-.2-9.6V96.1h-14.8V83.4h14.8c.1-2.2.2-17 .2-44.5l14.9 6.1-.1 38.4h45V96h-45v77c0 2.3 0 5.4-.1 9.4-.1 3.9-.1 6.8-.1 8.5 0 1.7.1 3.9.3 6.7.2 2.8.6 4.9 1.1 6.2.5 1.4 1.3 2.9 2.3 4.7 1 1.8 2.2 3.2 3.8 4.3 1.6 1.1 3.5 2.1 5.6 3.1 8.3 3.7 19.2 2.2 32.6-4.3l6 11c-5.9 3.8-12.9 6.4-20.9 7.7-8.1 1.4-15 1.2-20.7-.6-4.9-1.5-8.9-3.6-12.2-6.4zM921.4 226h15V116.1c5.5-7.5 12.6-13.3 21.2-17.4 8.7-4.1 18.3-6.2 28.8-6.2 17.2 0 30.5 4.5 39.6 13.4 9.2 8.9 13.8 21.1 13.8 36.6V226h15v-82.8c0-11.2-1.9-21-5.6-29.6-3.8-8.6-8.8-15.3-15.2-20.3-6.4-5-13.4-8.7-21.1-11.2-7.7-2.5-16-3.8-24.7-3.8-20.7 0-37.9 6.5-51.7 19.6V17.6l-15-6.6v215zM829.6 93.2c22.3 0 39 7.6 50.1 22.8v77.3c-11.1 15.2-27.8 22.8-50.1 22.8-18.2 0-33-5.4-44.4-16.1-11.4-10.7-17.1-25.8-17.1-45.3 0-19.4 5.7-34.6 17.1-45.4 11.4-10.7 26.2-16.1 44.4-16.1zM725 31.5V11h-15.6v20.5H725zM709.8 226h15.6V83.3h-15.6V226zM674.1 11v215h-14.8V17.4l14.8-6.4zm-93.2 212.3c-3.3-2.7-5.7-5.4-7.4-8.1-1.6-2.7-2.9-6-3.7-10.2-.8-4.1-1.3-7.4-1.4-9.7-.1-2.3-.2-5.5-.2-9.6V96.1h-14.8l1.8-10 13.7-3.4c.1-1 0-10.4 0-20.5V45.1l14.2-6v44.5h45v12.6h-45V173c0 2.3 0 5.4-.1 9.4-.1 3.9-.1 6.8-.1 8.5 0 1.7.1 3.9.3 6.7.2 2.8.6 4.9 1.1 6.2.5 1.4 1.3 2.9 2.3 4.7 1 1.8 2.2 3.2 3.8 4.3 1.6 1.1 3.5 2.1 5.6 3.1 8.4 3.7 19.2 2.2 32.6-4.3l6 11c-5.9 3.8-12.9 6.4-20.9 7.7-8.1 1.4-15 1.2-20.7-.6-4.8-1.5-8.8-3.6-12.1-6.4zm-179.6-76c1.6-17 7.9-30.2 18.8-39.5s24.5-14 40.7-14c16.3 0 29.7 4.7 40.3 14 10.6 9.3 16.7 22.5 18.4 39.5H401.3zm6.1-47.3c-14.4 14.1-21.6 32.5-21.6 55.4 0 15 3.7 28.3 11 39.9 7.3 11.6 16.9 20.4 28.7 26.3 11.8 5.9 24.8 8.9 38.9 8.9 14.4 0 27.5-3.3 39.4-9.8 11.9-6.5 21.3-15.6 28.1-27.1l-16.8-.4c-11.5 15-28.4 22.4-50.7 22.4-17.9 0-32.6-5.2-44.1-15.5-10.8-9.9-17.1-23.3-18.9-40.2h133.2c0-.4 0-1.1.1-2.1s.1-1.8.1-2.3c0-23-7.1-41.5-21.2-55.5-14.2-14-31.8-21-52.9-21-21.1-.1-38.9 7-53.3 21zM229.9 89.7V226h15V116.1c5.5-7.5 12.6-13.3 21.2-17.4 8.7-4.1 18.3-6.2 28.8-6.2 17.2 0 30.5 4.5 39.6 13.4 9.2 8.9 13.8 21.1 13.8 36.6V226h15v-82.8c0-11.2-1.9-21-5.6-29.6-3.8-8.6-8.8-15.3-15.2-20.3-6.4-5-13.4-8.7-21.1-11.2-7.7-2.5-16-3.8-24.7-3.8-20.7 0-37.9 6.5-51.7 19.6l-3-14.5-12.1 6.3zm562 202.5c-10.1-4.1-18.9-10-26.3-17.6l8-12.4c5.9 7.1 13.2 12.5 22.1 16.4 8.8 3.9 18.2 5.8 28.2 5.8 17.4 0 31-5.3 41-15.9 9.9-10.6 14.9-25.8 14.9-45.5v-11.4c-13.8 13-31.1 19.6-51.7 19.6-21.2 0-39-7-53.4-21-14.4-14-21.5-32.4-21.5-55.3s7.2-41.3 21.5-55.4C789 85.4 806.8 78.3 828 78.3c20.7 0 37.9 6.5 51.7 19.6l2.9-14.5h12.1v138.7c0 24.5-6.5 43.3-19.4 56.5-11.1 11.3-25.2 17.7-42.4 19.4h-17.5c-8.2-.8-16-2.7-23.5-5.8z" fill-rule="evenodd" clip-rule="evenodd"/><script/></svg>