<svg width="100%" height="100%" preserveAspectRatio="xMidYMid meet" xmlns="http://www.w3.org/2000/svg" viewBox="0 0 127 42">
    <g fill="#000000" fill-rule="nonzero">
        <path d="M57.913 33.105c0 1.972-.917 3.1-2.831 3.1-1.525 0-2.476-.843-2.706-2.086h.918c.194.73.699 1.3 1.822 1.3 1.227 0 1.892-.798 1.892-2.2v-.696h-.023a2.561 2.561 0 0 1-2.006.947c-1.502 0-2.82-1.152-2.82-2.93 0-1.687 1.203-2.907 2.808-2.907 1.043 0 1.674.547 2.018.969h.023v-.787h.905v5.29zm-2.82-.433c1.066 0 1.995-.867 1.995-2.098 0-1.3-.871-2.154-1.972-2.154-1.34 0-2.029 1.071-2.029 2.12 0 1.049.688 2.132 2.006 2.132zM65.044 33.276h-.906v-.73h-.022a2.583 2.583 0 0 1-2.007.924c-1.49 0-2.82-1.152-2.82-2.93 0-1.687 1.238-2.907 2.878-2.907.997 0 1.582.524 1.96.969h.011v-.787h.906v5.46zm-2.808-.604c1.031 0 1.983-.867 1.983-2.098 0-1.3-.883-2.154-1.96-2.154-1.376 0-2.03 1.071-2.03 2.12 0 1.049.654 2.132 2.007 2.132zM66.799 27.815h.905v.684h.023c.367-.49.929-.866 1.64-.866.86 0 1.558.49 1.788 1.128a2.116 2.116 0 0 1 1.891-1.128c1.238 0 2.098.855 2.098 2.462v3.18h-.906v-3.248c0-.844-.39-1.585-1.318-1.585-.768 0-1.49.548-1.49 1.801v3.033h-.917v-3.25c0-.9-.493-1.584-1.307-1.584-.917 0-1.502.661-1.502 1.801v3.033H66.8v-5.46zM76.726 25.444h1.124v1.06h-1.124v-1.06zm.104 2.371h.905v5.46h-.905v-5.46zM79.49 27.815h.905v.684h.023c.504-.65 1.135-.866 1.73-.866.998 0 2.167.616 2.167 2.462v3.18h-.905v-3.123c0-1.106-.54-1.71-1.399-1.71-.986 0-1.616.661-1.616 1.927v2.907h-.906v-5.46zM91.377 33.105c0 1.972-.917 3.1-2.831 3.1-1.525 0-2.476-.843-2.706-2.086h.918c.194.73.699 1.3 1.822 1.3 1.227 0 1.892-.798 1.892-2.2v-.696h-.023a2.561 2.561 0 0 1-2.006.947c-1.502 0-2.82-1.152-2.82-2.93 0-1.687 1.203-2.907 2.808-2.907 1.043 0 1.674.547 2.018.969h.023v-.787h.905v5.29zm-2.82-.433c1.066 0 1.995-.867 1.995-2.098 0-1.3-.871-2.154-1.972-2.154-1.341 0-2.029 1.071-2.029 2.12 0 1.049.688 2.132 2.006 2.132zM101.546 33.105c0 1.972-.917 3.1-2.831 3.1-1.525 0-2.477-.843-2.706-2.086h.917c.195.73.7 1.3 1.823 1.3 1.227 0 1.891-.798 1.891-2.2v-.696h-.022a2.561 2.561 0 0 1-2.007.947c-1.501 0-2.82-1.152-2.82-2.93 0-1.687 1.204-2.907 2.809-2.907 1.043 0 1.674.547 2.018.969h.022v-.787h.906v5.29zm-2.82-.433c1.066 0 1.995-.867 1.995-2.098 0-1.3-.871-2.154-1.972-2.154-1.341 0-2.029 1.071-2.029 2.12 0 1.049.688 2.132 2.006 2.132zM106.143 28.5c-.137-.024-.286-.058-.527-.058-.79 0-1.41.559-1.41 1.938v2.896h-.905v-5.46h.905v.683h.023c.183-.365.734-.866 1.456-.866.195 0 .332.011.458.034v.832zM109.606 27.633c1.708 0 2.934 1.254 2.934 2.907 0 1.607-1.238 2.93-2.934 2.93-1.663 0-2.935-1.277-2.935-2.93 0-1.687 1.284-2.907 2.935-2.907zm0 5.016c1.157 0 1.994-.912 1.994-2.11 0-1.15-.79-2.097-1.994-2.097-1.17 0-1.995.89-1.995 2.098 0 1.231.94 2.109 1.995 2.109zM118.525 33.276h-.906v-.673h-.023c-.481.65-1.089.867-1.662.867-.963 0-2.086-.616-2.086-2.463v-3.192h.905v3.124c0 1.106.528 1.71 1.33 1.71.94 0 1.536-.65 1.536-1.915v-2.919h.906v5.46zM120.279 27.815h.906v.775h.023c.366-.433.951-.957 2.063-.957 1.754 0 2.763 1.425 2.763 2.907 0 1.653-1.193 2.93-2.797 2.93-.94 0-1.628-.445-2.03-.924h-.022v3.409h-.906v-8.14zm2.797.605c-1.1 0-1.972.854-1.972 2.154 0 1.243.94 2.098 1.995 2.098 1.33 0 1.995-1.083 1.995-2.132 0-1.06-.665-2.12-2.018-2.12z"/>
        <g>
            <path d="M22.632.36a7.853 7.853 0 0 0-2.049-.269 7.87 7.87 0 0 0-5.431 2.167L2.424 15.01a7.927 7.927 0 0 0 0 11.195l.006.005a9.892 9.892 0 0 1 2.787-8.402L22.632.361zM12.204 26.781a1.984 1.984 0 0 1-1.702-.967c-.472-.773-.328-1.774.31-2.416a1.972 1.972 0 0 1 2.796-.002c.77.771.77 2.023.002 2.796l-.01.01c-.386.386-.891.579-1.396.58z"/>
            <path d="M34.552 10.812a7.883 7.883 0 0 1 2.226 4.417 7.995 7.995 0 0 1-.006 2.4c-.017.11-.037.217-.055.319a3.408 3.408 0 0 1-.061.278 6.917 6.917 0 0 1-.096.371 7.887 7.887 0 0 1-2.009 3.41L16.57 40.02a7.718 7.718 0 0 1-1.573-1.223 7.9 7.9 0 0 1-1.22-1.575L31.21 19.754l.547-.546a3.942 3.942 0 0 0 1.148-2.55 3.952 3.952 0 0 0-1.935-3.66 3.953 3.953 0 0 0-3.282-.335 3.703 3.703 0 0 0-.732.335c-.28.166-.545.37-.787.612l-8.372 8.387a1.973 1.973 0 0 1-2.793 0 1.982 1.982 0 0 1 0-2.8l8.4-8.415A8.121 8.121 0 0 1 24.95 9.59a7.882 7.882 0 0 1 4.015-1.096c2.02 0 4.044.773 5.587 2.319z"/>
        </g>
        <g>
            <path d="M56.343 13.089c-.45 0-.931-.058-1.446-.174a3.451 3.451 0 0 1-1.402-.67 2.716 2.716 0 0 1-.62-.726 4.71 4.71 0 0 1-.412-.91 5.852 5.852 0 0 1-.24-.995 6.762 6.762 0 0 1-.076-1.007v-.412c0-.13.015-.26.044-.39.101-1.255.572-2.23 1.413-2.922.246-.202.55-.397.913-.585a2.308 2.308 0 0 1 1.065-.281h7.195c.145 0 .218.072.218.216v2.382c0 .144-.073.216-.218.216h-6.282c-.203 0-.388.09-.554.271a2 2 0 0 0-.359.509 1.232 1.232 0 0 0-.13.433 4.31 4.31 0 0 0-.022.433c0 .231.014.47.043.714.03.246.13.463.305.65.159.159.38.253.663.281.282.03.59.044.923.044H59.8c.45 0 .92.061 1.413.184s.95.357 1.37.703c.246.203.452.448.62.737.165.288.303.599.412.93.109.333.185.68.228 1.04.044.36.066.707.066 1.04v.454c0 .13-.015.253-.044.368-.116 1.313-.58 2.324-1.391 3.031-.247.202-.547.4-.902.595-.355.195-.692.293-1.01.293h-7.914c-.145 0-.217-.072-.217-.217v-2.381c0-.145.072-.217.217-.217h7c.217 0 .406-.105.565-.314a2.7 2.7 0 0 0 .348-.574c.072-.158.116-.31.13-.454.015-.144.022-.296.022-.455 0-.23-.014-.473-.043-.725-.03-.253-.13-.48-.305-.682-.145-.159-.351-.271-.62-.336a4.055 4.055 0 0 0-.945-.097h-2.456zM67.56 8.845c0-.62.086-1.205.26-1.754a2.71 2.71 0 0 1 .359-.812c.152-.223.308-.429.467-.617a4.733 4.733 0 0 1 3.609-1.645h5.76c.145 0 .218.072.218.216v2.382c0 .144-.073.216-.218.216h-5.63c-.565.116-.985.408-1.26.877-.276.47-.414 1.08-.414 1.83v5.478c.044.505.207.906.49 1.201.282.296.677.466 1.184.509h5.63c.145 0 .218.072.218.217v2.381c0 .145-.073.217-.218.217h-5.564c-.435 0-.82-.04-1.153-.12a5.869 5.869 0 0 1-.87-.27 3.878 3.878 0 0 1-1.477-.985c-.435-.455-.79-1-1.065-1.635a3.808 3.808 0 0 1-.326-1.624V8.845zM82.08 11.768c0-.852.007-1.588.022-2.208.014-.621.058-1.126.13-1.516.116-.563.24-1.068.37-1.516.13-.447.304-.815.522-1.104a4.33 4.33 0 0 1 1.087-.985c.434-.282.898-.48 1.39-.595.349-.072.805-.116 1.37-.13a81.91 81.91 0 0 1 2.022-.022c.782 0 1.456.007 2.021.022.566.014 1.022.058 1.37.13.492.115.956.313 1.391.595.435.281.797.61 1.087.985.217.289.391.657.522 1.104.13.448.253.953.37 1.516.072.39.115.895.13 1.516.014.62.021 1.356.021 2.208v.13c0 .852-.007 1.588-.021 2.208-.015.621-.058 1.126-.13 1.516-.117.563-.24 1.068-.37 1.515-.13.448-.305.816-.522 1.105-.29.375-.652.703-1.087.985-.435.281-.899.48-1.391.595-.348.072-.804.116-1.37.13-.565.014-1.239.022-2.021.022-.783 0-1.457-.008-2.022-.022-.565-.014-1.021-.058-1.37-.13a4.387 4.387 0 0 1-1.39-.595 4.32 4.32 0 0 1-1.087-.985c-.218-.289-.392-.657-.522-1.105-.13-.447-.254-.952-.37-1.515-.072-.39-.116-.895-.13-1.516a95.777 95.777 0 0 1-.022-2.208v-.13zm5.63-5.056a5.624 5.624 0 0 0-1.043.141c-.522.13-.891.386-1.109.769-.217.382-.326.956-.326 1.721v4.98c0 .765.109 1.339.326 1.721.218.383.587.639 1.109.769.29.072.637.119 1.043.14.406.022.833.033 1.283.033.449 0 .876-.011 1.282-.033a5.598 5.598 0 0 0 1.044-.14c.522-.13.891-.386 1.108-.769.218-.382.326-.956.326-1.721v-4.98c0-.765-.108-1.339-.326-1.721-.217-.383-.586-.639-1.108-.769a5.63 5.63 0 0 0-1.044-.14 24.116 24.116 0 0 0-1.282-.033c-.45 0-.877.01-1.283.032zM108.557 4.017h2.717c.145 0 .217.072.217.216v10.285c0 .52-.029.978-.087 1.374a4.158 4.158 0 0 1-.239.964 3.699 3.699 0 0 1-.38.725 5.288 5.288 0 0 1-.554.704c-.218.216-.471.4-.761.552-.29.152-.565.278-.826.379a7.569 7.569 0 0 1-.87.227 5.23 5.23 0 0 1-1.043.098h-2.544a5.61 5.61 0 0 1-1.337-.152 3.418 3.418 0 0 1-1.054-.433 4.29 4.29 0 0 1-.782-.606 5.202 5.202 0 0 1-.696-.845 4.617 4.617 0 0 1-.446-1.006 3.849 3.849 0 0 1-.163-1.137V4.233c0-.144.073-.216.218-.216h2.717c.145 0 .217.072.217.216V14.8c0 .173.033.372.098.596.065.223.163.433.294.627.13.195.293.361.489.498.195.138.424.206.684.206h2.283c.246 0 .47-.068.674-.206.203-.137.373-.303.51-.498.138-.194.247-.404.327-.627.08-.224.12-.43.12-.618V4.233c0-.144.072-.216.217-.216zM122.056 19.324c0 .145-.073.217-.217.217h-2.718c-.145 0-.217-.072-.217-.217V7.048c0-.144-.073-.217-.217-.217h-3.544c-.145 0-.217-.072-.217-.216V4.233c0-.144.072-.216.217-.216h10.674c.144 0 .217.072.217.216v2.382c0 .144-.073.216-.217.216h-3.544c-.145 0-.217.073-.217.217v12.276z"/>
        </g>
        <g>
            <path d="M41.233 20.688c-.001-.064-.004-.128-.007-.194-.005-.086-.01-.172-.017-.258a8.656 8.656 0 0 0-.132-.929l-.033-.16c-.01-.044-.02-.09-.032-.135a7.878 7.878 0 0 0-2.098-3.728l-.007-.006c.372 2.603-.394 5.526-2.096 7.697L18.636 41.122a7.936 7.936 0 0 0 7.661-2.05l.002-.002 12.614-12.592a6.596 6.596 0 0 0 .23-.24l.105-.115a9.277 9.277 0 0 0 .405-.496c.004-.003.006-.007.008-.01.044-.058.087-.117.129-.177a7.724 7.724 0 0 0 .764-1.342 7.435 7.435 0 0 0 .298-.78l.047-.148.03-.102a4.641 4.641 0 0 0 .07-.27 1.84 1.84 0 0 0 .02-.078 8.218 8.218 0 0 0 .066-.303l.019-.093c.013-.07.025-.14.036-.212a7.26 7.26 0 0 0 .083-.787c.003-.036.004-.073.006-.11 0-.02 0-.039.002-.059l.003-.12a8.004 8.004 0 0 0-.001-.348zM29.1 14.706a1.975 1.975 0 0 1 1.402 3.375v.001a1.972 1.972 0 0 1-2.785 0l-.018-.018a1.964 1.964 0 0 1 0-2.78 1.971 1.971 0 0 1 1.402-.578z"/>
            <path d="M26.122 2.514l.346.346c.402.426.756.896 1.056 1.404L9.476 22.28a3.87 3.87 0 0 0-.48.58l-.042.063a3.964 3.964 0 0 0-.23.402l-.041.087-.04.088a2.097 2.097 0 0 0-.058.14 3.206 3.206 0 0 0-.105.312.904.904 0 0 0-.091.37c-.01.05-.019.1-.026.15l-.006.039-.017.136a3.913 3.913 0 0 0-.007.799l.011.102a3.758 3.758 0 0 0 .293 1.094 3.494 3.494 0 0 0 .239.468c.109.183.234.358.375.523a3.666 3.666 0 0 0 .335.351 3.975 3.975 0 0 0 5.497-.106l8.42-8.405a1.985 1.985 0 0 1 2.803 0 1.977 1.977 0 0 1 0 2.798l-8.42 8.406a7.917 7.917 0 0 1-3.55 2.048 7.931 7.931 0 0 1-7.545-1.932c-.033-.032-.066-.063-.098-.096l-.02-.021-.134-.136-.034-.036a7.705 7.705 0 0 1-.483-.562c-.026-.032-.052-.065-.076-.098a4.7 4.7 0 0 1-.369-.532l-.066-.105a6.752 6.752 0 0 1-.298-.533 5.227 5.227 0 0 1-.149-.308 6.147 6.147 0 0 1-.27-.672 7.84 7.84 0 0 1-.196-.648l-.038-.154a7.615 7.615 0 0 1-.196-1.34l-.008-.168a12.923 12.923 0 0 1-.005-.167v-.167a7.54 7.54 0 0 1 .11-1.296 6.559 6.559 0 0 1 .12-.577c.011-.048.025-.096.037-.144l.04-.142a7.4 7.4 0 0 1 .426-1.145h.001c.035-.074.07-.149.107-.222a8.504 8.504 0 0 1 .527-.892l.065-.095.038-.053c.05-.07.103-.14.156-.21.03-.039.06-.079.091-.116a6.366 6.366 0 0 1 .302-.358c.039-.044.08-.087.12-.13l.09-.095.045-.047L24.722 1.464c.506.298.975.65 1.4 1.05z"/>
        </g>
    </g>
<script xmlns=""/></svg>
