<svg viewBox="0 0 122 20" xmlns="http://www.w3.org/2000/svg"><g id="Symbols" stroke="none" stroke-width="1" fill="none" fill-rule="evenodd"><g id="Top-Navigation" transform="translate(-79 -35)" fill="#000"><g transform="translate(79 35)" id="Logotype"><path d="M14.088 4.044c-1.133-.581-2.597-.998-4.004-.998-1.382 0-3.233.555-3.233 2.216 0 3.103 6.574 2.91 6.574 8.284 0 4.737-3.7 6.454-7.927 6.454-1.85 0-3.757-.442-5.498-1.08l.995-3.295c1.492.692 3.067 1.327 4.724 1.327 1.852 0 3.673-.939 3.673-3.019 0-3.49-6.573-2.936-6.573-8.09C2.819 1.773 6.298 0 10.002 0c1.682 0 3.423.22 4.998.858l-.912 3.186z" id="Fill-1"/><path d="M15.566 5.274h2.607l.617-2.961L22.661 1l-.887 4.274H25l-.564 2.74H21.21l-1.317 6.285c-.082.335-.162.84-.162 1.4 0 .865.565 1.395 1.372 1.395.644 0 1.29-.137 1.749-.334l-.62 2.906c-.62.14-1.32.334-1.936.334-2.446 0-4.166-1.004-4.166-3.77 0-1.119.214-2.209.457-3.357l1.02-4.859H15l.566-2.74z" id="Fill-3"/><path d="M35.119 11.318c0-1.865-.638-3.425-2.828-3.425-2.94 0-4.408 3.257-4.408 5.845 0 1.893.775 3.368 2.911 3.368 2.882 0 4.325-3.34 4.325-5.788M39 11.29c0 5.036-3.466 8.71-8.51 8.71-4.048 0-6.49-2.505-6.49-6.54C24 8.674 27.662 5 32.456 5 36.31 5 39 7.338 39 11.29" id="Fill-5"/><path d="M118.118 11.318c0-1.865-.637-3.425-2.83-3.425-2.937 0-4.406 3.257-4.406 5.845 0 1.893.775 3.368 2.912 3.368 2.881 0 4.324-3.34 4.324-5.788M122 11.29c0 5.036-3.467 8.71-8.513 8.71-4.046 0-6.487-2.505-6.487-6.54 0-4.786 3.66-8.46 8.457-8.46C119.308 5 122 7.338 122 11.29" id="Fill-7"/><path d="M42.417 7.152c.104-.585.209-1.196.313-1.834h3.362l-.473 2.578h.051C46.3 6.408 48.034 5 49.662 5c.447 0 .918.027 1.338.133l-.735 3.48a4.407 4.407 0 0 0-1.338-.213c-2.495 0-3.703 2.26-4.148 4.464L43.519 19H40l2.417-11.848z" id="Fill-9"/><path d="M52.588 6.833c.11-.533.221-1.09.303-1.515h3.443l-.329 1.834h.054C57.05 5.742 58.677 5 60.412 5c1.68 0 3.415.956 3.607 2.602h.055C65.011 5.822 67.077 5 69.061 5 71.18 5 73 6.673 73 8.746c0 1.222-.33 2.602-.634 3.72L70.877 19h-3.689l1.488-6.668c.191-.825.466-2.098.466-2.923 0-1.01-.797-1.647-1.734-1.647-2.562 0-3.195 2.87-3.663 4.728L62.285 19h-3.69l1.486-6.668c.191-.825.468-2.098.468-2.923 0-1.01-.8-1.647-1.736-1.647-2.505 0-3.196 2.898-3.663 4.728L53.69 19H50l2.588-12.167z" id="Fill-11"/><path d="M92.033 4.431c-1.49-.968-3.339-1.385-5.355-1.385-4.693 0-7.648 3.685-7.648 8.256 0 3.13 2.154 5.652 5.44 5.652.882 0 1.463 0 1.903-.196l1.077-5.123h-4.086l.635-3.046h7.813l-2.207 10.553c-1.133.47-3.285.858-5.163.858C78.784 20 75 17.397 75 11.413 75 4.349 79.61 0 86.568 0 88.722 0 90.986.305 93 1.08l-.967 3.351z" id="Fill-13"/><path d="M102.36 11.095c.056-.334.084-.64.084-.975 0-1.53-.806-2.393-2.362-2.393-2.304 0-3.304 1.394-4.027 3.368h6.305zm-6.804 2.56c0 2.645 1.416 3.618 3.97 3.618 1.529 0 3-.39 4.39-1.028l-.473 2.949c-1.443.445-3.026.806-4.554.806C94.78 20 92 17.998 92 13.738 92 9.286 95.445 5 100.14 5c3.528 0 5.86 1.81 5.86 5.455 0 1.087-.139 2.143-.36 3.2H95.556z" id="Fill-16"/></g></g></g><script/></svg>