<svg width="100%" height="100%" preserveAspectRatio="xMidYMid meet" xmlns="http://www.w3.org/2000/svg" viewBox="0 0 91 15"><script xmlns=""/>
  <defs>
    <style>.a{fill:#000000;}</style>
  </defs>
  <path class="a" d="M10.65,1.083,8.78,7.632l-.695,2.544h-.24L7.163,7.632,5.293,1.083A1.266,1.266,0,0,0,4,0H0L4.308,13.589C4.649,14.635,4.99,15,6.014,15H9.93c1.023,0,1.364-.365,1.718-1.411L15.944,0H11.951A1.278,1.278,0,0,0,10.65,1.083Z" transform="translate(0 0)"/>
  <rect class="a" width="4.599" height="14.937" transform="translate(17.712 0)"/>
  <path class="a" d="M206.929.882l-1.946,4.5h-.189l-2.072-4.5c-.278-.542-.543-.882-1.2-.882H195.9V14.937h4.22V5.894h.215l2.691,4.987c.328.579.518.781,1.074.781h1.314c.556,0,.771-.227,1.074-.781l2.691-4.987h.215v9.043h4.346V0h-5.6C207.472,0,207.22.277,206.929.882Z" transform="translate(-171.151 0)"/>
  <path class="a" d="M361.676,0h-4.99c-1.567,0-2.375.277-2.956.856-.872.856-1.63,2.494-1.63,6.612s.745,5.756,1.63,6.612c.581.579,1.39.856,2.956.856h4.99c1.567,0,2.375-.277,2.956-.856.872-.856,1.63-2.494,1.63-6.612s-.745-5.756-1.63-6.612C364.064.277,363.243,0,361.676,0Zm-.556,11.285c-.126.126-.341.176-.985.176h-1.908c-.644,0-.859-.038-.986-.176-.152-.151-.4-.529-.4-3.816,0-3.262.253-3.665.4-3.816.126-.126.341-.176.986-.176h1.908c.644,0,.859.038.985.176.152.151.4.554.4,3.816S361.272,11.134,361.12,11.285Z" transform="translate(-307.617 0)"/>
  <path class="a" d="M488.892,7.645h-.1L484.9,1.1A1.982,1.982,0,0,0,482.916,0H479V14.937h4.346V6.4h.1l4.624,7.443a1.984,1.984,0,0,0,1.971,1.083h3.184V0h-4.346V7.645Z" transform="translate(-418.485 0)"/>
  <path class="a" d="M623.105,1.259c-.9-.894-2.2-1.259-4.573-1.259H610.8V14.937h7.732c2.375,0,3.676-.34,4.586-1.234,1.023-1.02,1.516-2.494,1.516-6.234S624.141,2.28,623.105,1.259Zm-3.613,9.95c-.253.252-.644.365-1.668.365h-2.413v-8.2h2.413c1.049,0,1.415.088,1.668.34.278.3.4.945.4,3.753S619.745,10.945,619.492,11.209Z" transform="translate(-533.634 0)"/>
</svg>
