<svg xmlns="http://www.w3.org/2000/svg" viewBox="0 0 91 15"><script/><defs><style>.a{fill:#000}</style></defs><path class="a" d="M10.65 1.083L8.78 7.632l-.695 2.544h-.24l-.682-2.544-1.87-6.549A1.266 1.266 0 0 0 4 0H0l4.308 13.589C4.649 14.635 4.99 15 6.014 15H9.93c1.023 0 1.364-.365 1.718-1.411L15.944 0h-3.993a1.278 1.278 0 0 0-1.301 1.083zM17.712 0h4.599v14.937h-4.599zM35.778.882l-1.946 4.5h-.189l-2.072-4.5C31.293.34 31.028 0 30.371 0h-5.622v14.937h4.22V5.894h.215l2.691 4.987c.328.579.518.781 1.074.781h1.314c.556 0 .771-.227 1.074-.781l2.691-4.987h.215v9.043h4.346V0h-5.6c-.668 0-.92.277-1.211.882zM54.059 0h-4.99c-1.567 0-2.375.277-2.956.856-.872.856-1.63 2.494-1.63 6.612s.745 5.756 1.63 6.612c.581.579 1.39.856 2.956.856h4.99c1.567 0 2.375-.277 2.956-.856.872-.856 1.63-2.494 1.63-6.612S57.9 1.712 57.015.856C56.447.277 55.626 0 54.059 0zm-.556 11.285c-.126.126-.341.176-.985.176H50.61c-.644 0-.859-.038-.986-.176-.152-.151-.4-.529-.4-3.816 0-3.262.253-3.665.4-3.816.126-.126.341-.176.986-.176h1.908c.644 0 .859.038.985.176.152.151.4.554.4 3.816s-.248 3.665-.4 3.816zM70.407 7.645h-.1L66.415 1.1A1.982 1.982 0 0 0 64.431 0h-3.916v14.937h4.346V6.4h.1l4.624 7.443a1.984 1.984 0 0 0 1.971 1.083h3.184V0h-4.346v7.645zM89.471 1.259C88.571.365 87.271 0 84.898 0h-7.732v14.937h7.732c2.375 0 3.676-.34 4.586-1.234C90.507 12.683 91 11.209 91 7.469s-.493-5.189-1.529-6.21zm-3.613 9.95c-.253.252-.644.365-1.668.365h-2.413v-8.2h2.413c1.049 0 1.415.088 1.668.34.278.3.4.945.4 3.753s-.147 3.478-.4 3.742z"/></svg>